M48
; DRILL file {KiCad 7.0.11-7.0.11~ubuntu20.04.1} date Do 11 Apr 2024 13:17:33
; FORMAT={-:-/ absolute / metric / decimal}
; #@! TF.CreationDate,2024-04-11T13:17:33+02:00
; #@! TF.GenerationSoftware,Kicad,Pcbnew,7.0.11-7.0.11~ubuntu20.04.1
; #@! TF.FileFunction,MixedPlating,1,2
FMAT,2
METRIC
; #@! TA.AperFunction,Plated,PTH,ViaDrill
T1C0.600
; #@! TA.AperFunction,Plated,PTH,ComponentDrill
T2C0.750
; #@! TA.AperFunction,Plated,PTH,ComponentDrill
T3C0.800
; #@! TA.AperFunction,Plated,PTH,ComponentDrill
T4C1.000
; #@! TA.AperFunction,Plated,PTH,ComponentDrill
T5C1.200
; #@! TA.AperFunction,Plated,PTH,ComponentDrill
T6C3.200
; #@! TA.AperFunction,NonPlated,NPTH,ComponentDrill
T7C3.500
%
G90
G05
T1
X119.888Y-126.492
X121.158Y-108.204
X121.158Y-131.064
X121.92Y-61.341
X124.46Y-118.11
X125.222Y-123.698
X126.112Y-127.237
X126.492Y-87.884
X127.635Y-101.6
X129.921Y-99.06
X130.175Y-133.985
X131.318Y-76.962
X132.334Y-100.33
X133.858Y-74.841
X133.858Y-87.122
X133.858Y-107.696
X133.985Y-137.033
X135.128Y-135.382
X137.668Y-78.613
X137.668Y-105.451
X138.684Y-115.316
X139.0Y-119.634
X139.065Y-101.6
X140.208Y-79.629
X141.478Y-102.87
X141.605Y-60.96
X141.732Y-100.33
X142.748Y-107.696
X142.875Y-118.872
X143.129Y-87.376
X144.0Y-93.98
X145.288Y-102.743
X145.288Y-115.062
X147.955Y-105.41
X148.463Y-100.838
X150.368Y-100.076
X150.368Y-101.727
X151.765Y-82.169
X152.908Y-100.076
X154.94Y-78.486
X155.448Y-76.327
X158.496Y-77.216
X160.528Y-70.866
X160.782Y-122.936
X161.925Y-139.954
X162.433Y-131.064
X163.068Y-115.316
X163.576Y-138.049
X163.83Y-129.667
X165.94Y-128.651
X168.148Y-59.563
X168.148Y-74.168
X169.672Y-77.216
X172.877Y-73.873
X175.895Y-59.008
X179.451Y-139.065
X180.553Y-137.287
X180.848Y-132.761
X182.246Y-134.121
X184.658Y-66.294
X186.704Y-128.284
X187.071Y-131.191
X188.722Y-107.696
X191.77Y-101.346
X196.596Y-122.936
X196.977Y-129.794
X197.358Y-90.17
X198.12Y-94.996
X212.344Y-87.884
X224.028Y-133.096
T2
X219.202Y-117.094
X219.202Y-129.794
T3
X119.888Y-96.52
X119.888Y-111.76
X120.015Y-68.326
X120.015Y-83.566
X122.428Y-96.52
X122.428Y-111.76
X122.555Y-68.326
X122.555Y-83.566
X124.968Y-96.52
X124.968Y-111.76
X125.095Y-68.326
X125.095Y-83.566
X127.508Y-96.52
X127.508Y-111.76
X127.635Y-68.326
X127.635Y-83.566
X130.048Y-96.52
X130.048Y-111.76
X130.048Y-122.809
X130.048Y-130.429
X130.175Y-55.626
X130.175Y-63.246
X130.175Y-68.326
X130.175Y-83.566
X132.588Y-96.52
X132.588Y-111.76
X132.588Y-122.809
X132.588Y-130.429
X132.715Y-55.626
X132.715Y-63.246
X132.715Y-68.326
X132.715Y-83.566
X135.128Y-96.52
X135.128Y-111.76
X135.128Y-122.809
X135.128Y-130.429
X135.255Y-55.626
X135.255Y-63.246
X135.255Y-68.326
X135.255Y-83.566
X137.668Y-96.52
X137.668Y-111.76
X137.668Y-122.809
X137.668Y-130.429
X137.795Y-55.626
X137.795Y-63.246
X137.795Y-68.326
X137.795Y-83.566
X140.208Y-96.52
X140.208Y-111.76
X140.208Y-122.809
X140.208Y-130.429
X140.335Y-55.626
X140.335Y-63.246
X140.335Y-68.326
X140.335Y-83.566
X142.748Y-96.52
X142.748Y-111.76
X142.748Y-122.809
X142.748Y-130.429
X142.875Y-55.626
X142.875Y-63.246
X142.875Y-68.326
X142.875Y-83.566
X142.955Y-90.932
X145.288Y-96.52
X145.288Y-111.76
X145.288Y-122.809
X145.288Y-130.429
X145.415Y-55.626
X145.415Y-63.246
X145.415Y-68.326
X145.415Y-83.566
X147.828Y-96.52
X147.828Y-111.76
X147.828Y-122.809
X147.828Y-130.429
X147.955Y-55.626
X147.955Y-63.246
X147.955Y-68.326
X147.955Y-83.566
X147.955Y-90.932
X148.416Y-117.348
X148.416Y-133.35
X150.368Y-96.52
X150.368Y-111.76
X150.368Y-122.809
X150.368Y-130.429
X152.908Y-96.52
X152.908Y-111.76
X152.908Y-122.809
X152.908Y-130.429
X153.416Y-57.23
X153.416Y-62.23
X153.416Y-117.348
X153.416Y-133.35
X163.068Y-55.626
X163.068Y-63.246
X163.068Y-70.612
X163.068Y-85.852
X165.608Y-55.626
X165.608Y-63.246
X165.608Y-70.612
X165.608Y-85.852
X168.148Y-55.626
X168.148Y-63.246
X168.148Y-70.612
X168.148Y-85.852
X168.656Y-94.996
X168.656Y-97.536
X168.656Y-100.076
X168.656Y-102.616
X168.656Y-105.156
X168.656Y-107.696
X168.656Y-110.236
X168.656Y-112.776
X168.656Y-115.316
X168.656Y-117.856
X170.688Y-55.626
X170.688Y-63.246
X170.688Y-70.612
X170.688Y-85.852
X171.276Y-90.932
X173.228Y-55.626
X173.228Y-63.246
X173.228Y-70.612
X173.228Y-85.852
X175.768Y-55.626
X175.768Y-63.246
X175.768Y-70.612
X175.768Y-85.852
X176.276Y-90.932
X176.276Y-94.996
X176.276Y-97.536
X176.276Y-100.076
X176.276Y-102.616
X176.276Y-105.156
X176.276Y-107.696
X176.276Y-110.236
X176.276Y-112.776
X176.276Y-115.316
X176.276Y-117.856
X178.308Y-55.626
X178.308Y-63.246
X178.308Y-70.612
X178.308Y-85.852
X179.912Y-90.932
X180.848Y-70.612
X180.848Y-85.852
X181.102Y-94.996
X181.102Y-97.536
X181.102Y-100.076
X181.102Y-102.616
X181.102Y-105.156
X181.102Y-107.696
X181.102Y-110.236
X181.102Y-112.776
X183.134Y-57.23
X183.134Y-62.23
X183.388Y-70.612
X183.388Y-85.852
X184.912Y-90.932
X185.928Y-70.612
X185.928Y-85.852
X186.182Y-94.996
X186.182Y-97.536
X186.182Y-100.076
X186.182Y-102.616
X186.182Y-105.156
X186.182Y-107.696
X186.182Y-110.236
X186.182Y-112.776
X186.182Y-115.316
X186.182Y-117.856
X188.468Y-70.612
X188.468Y-85.852
X188.548Y-90.932
X191.008Y-70.612
X191.008Y-85.852
X193.294Y-55.626
X193.294Y-63.246
X193.548Y-70.612
X193.548Y-85.852
X193.548Y-90.932
X193.802Y-94.996
X193.802Y-97.536
X193.802Y-100.076
X193.802Y-102.616
X193.802Y-105.156
X193.802Y-107.696
X193.802Y-110.236
X193.802Y-112.776
X193.802Y-115.316
X193.802Y-117.856
X195.834Y-55.626
X195.834Y-63.246
X196.088Y-70.612
X196.088Y-85.852
X198.374Y-55.626
X198.374Y-63.246
X198.628Y-70.612
X198.628Y-85.852
X200.914Y-55.626
X200.914Y-63.246
X201.168Y-70.612
X201.168Y-85.852
X203.454Y-55.626
X203.454Y-63.246
X203.708Y-70.612
X203.708Y-85.852
X203.835Y-94.742
X203.835Y-97.282
X203.835Y-99.822
X203.835Y-102.362
X203.835Y-104.902
X203.835Y-107.442
X203.835Y-109.982
X203.835Y-112.522
X203.835Y-115.062
X203.835Y-117.602
X205.994Y-55.626
X205.994Y-63.246
X206.074Y-90.17
X206.248Y-70.612
X206.248Y-85.852
X208.534Y-55.626
X208.534Y-63.246
X208.788Y-70.612
X208.788Y-85.852
X211.074Y-90.17
X211.328Y-70.612
X211.328Y-85.852
X211.455Y-94.742
X211.455Y-97.282
X211.455Y-99.822
X211.455Y-102.362
X211.455Y-104.902
X211.455Y-107.442
X211.455Y-109.982
X211.455Y-112.522
X211.455Y-115.062
X211.455Y-117.602
X213.614Y-57.23
X213.614Y-62.23
X215.392Y-116.84
X215.392Y-129.54
X224.028Y-61.214
X224.028Y-63.754
X224.028Y-66.294
X224.028Y-68.834
X224.028Y-71.374
X224.028Y-73.914
X224.028Y-76.454
X224.028Y-78.994
X224.028Y-85.725
X224.028Y-88.265
X224.028Y-90.805
X224.028Y-93.345
X224.028Y-95.885
X224.028Y-98.425
X224.028Y-100.965
X224.028Y-103.505
X224.028Y-109.474
X224.028Y-112.014
X224.028Y-114.554
X224.028Y-117.094
X224.028Y-119.634
X224.028Y-122.174
X224.028Y-124.714
X224.028Y-127.254
T4
X166.746Y-136.139
X166.746Y-138.679
X169.286Y-136.139
X169.286Y-138.679
X171.826Y-136.139
X171.826Y-138.679
X174.366Y-136.139
X174.366Y-138.679
X176.906Y-136.139
X176.906Y-138.679
X178.816Y-123.571
X178.816Y-126.111
X181.356Y-123.571
X181.356Y-126.111
X183.261Y-136.144
X183.261Y-138.684
X183.896Y-123.571
X183.896Y-126.111
X185.801Y-136.144
X185.801Y-138.684
X188.341Y-136.144
X188.341Y-138.684
X190.881Y-136.144
X190.881Y-138.684
X196.85Y-97.536
X196.85Y-100.076
X199.39Y-97.536
X199.39Y-100.076
X229.108Y-65.024
X229.108Y-67.564
X229.108Y-70.104
X229.108Y-72.644
X229.108Y-75.184
X229.108Y-77.724
X229.108Y-80.264
X229.108Y-82.804
X229.108Y-85.344
X229.108Y-87.884
X229.108Y-90.424
X229.108Y-92.964
X229.108Y-95.504
X229.108Y-98.044
X229.108Y-100.584
X229.108Y-103.124
X229.108Y-105.664
X229.108Y-108.204
X229.108Y-110.744
X229.108Y-113.284
X229.108Y-115.824
X229.108Y-118.364
X229.108Y-120.904
X229.108Y-123.444
X229.108Y-125.984
X231.648Y-65.024
X231.648Y-67.564
X231.648Y-70.104
X231.648Y-72.644
X231.648Y-75.184
X231.648Y-77.724
X231.648Y-80.264
X231.648Y-82.804
X231.648Y-85.344
X231.648Y-87.884
X231.648Y-90.424
X231.648Y-92.964
X231.648Y-95.504
X231.648Y-98.044
X231.648Y-100.584
X231.648Y-103.124
X231.648Y-105.664
X231.648Y-108.204
X231.648Y-110.744
X231.648Y-113.284
X231.648Y-115.824
X231.648Y-118.364
X231.648Y-120.904
X231.648Y-123.444
X231.648Y-125.984
X231.71Y-132.75
X234.25Y-132.75
X241.25Y-98.0
X241.25Y-100.77
X241.25Y-103.54
X241.25Y-106.31
X241.25Y-109.08
X241.25Y-111.85
X241.25Y-114.62
X241.25Y-117.39
X241.25Y-120.16
X241.25Y-122.93
X241.25Y-125.7
X241.25Y-128.47
X241.25Y-131.24
X244.09Y-99.385
X244.09Y-102.155
X244.09Y-104.925
X244.09Y-107.695
X244.09Y-110.465
X244.09Y-113.235
X244.09Y-116.005
X244.09Y-118.775
X244.09Y-121.545
X244.09Y-124.315
X244.09Y-127.085
X244.09Y-129.855
T5
X137.448Y-138.557
X155.448Y-138.557
T6
X242.67Y-91.07
X242.67Y-138.17
T7
X3.775Y-3.775
X3.775Y-12.325
M30
