%TF.GenerationSoftware,KiCad,Pcbnew,7.0.11-7.0.11~ubuntu20.04.1*%
%TF.CreationDate,2024-04-11T13:04:31+02:00*%
%TF.ProjectId,NCL501,4e434c35-3031-42e6-9b69-6361645f7063,rev?*%
%TF.SameCoordinates,Original*%
%TF.FileFunction,AssemblyDrawing,Top*%
%FSLAX46Y46*%
G04 Gerber Fmt 4.6, Leading zero omitted, Abs format (unit mm)*
G04 Created by KiCad (PCBNEW 7.0.11-7.0.11~ubuntu20.04.1) date 2024-04-11 13:04:31*
%MOMM*%
%LPD*%
G01*
G04 APERTURE LIST*
%ADD10C,0.150000*%
%ADD11C,0.060000*%
%ADD12C,0.120000*%
%ADD13C,0.100000*%
G04 APERTURE END LIST*
D10*
X190881333Y-91291580D02*
X190833714Y-91339200D01*
X190833714Y-91339200D02*
X190690857Y-91386819D01*
X190690857Y-91386819D02*
X190595619Y-91386819D01*
X190595619Y-91386819D02*
X190452762Y-91339200D01*
X190452762Y-91339200D02*
X190357524Y-91243961D01*
X190357524Y-91243961D02*
X190309905Y-91148723D01*
X190309905Y-91148723D02*
X190262286Y-90958247D01*
X190262286Y-90958247D02*
X190262286Y-90815390D01*
X190262286Y-90815390D02*
X190309905Y-90624914D01*
X190309905Y-90624914D02*
X190357524Y-90529676D01*
X190357524Y-90529676D02*
X190452762Y-90434438D01*
X190452762Y-90434438D02*
X190595619Y-90386819D01*
X190595619Y-90386819D02*
X190690857Y-90386819D01*
X190690857Y-90386819D02*
X190833714Y-90434438D01*
X190833714Y-90434438D02*
X190881333Y-90482057D01*
X191214667Y-90386819D02*
X191881333Y-90386819D01*
X191881333Y-90386819D02*
X191452762Y-91386819D01*
X119184057Y-106068475D02*
X119136438Y-106020856D01*
X119136438Y-106020856D02*
X119088819Y-105925618D01*
X119088819Y-105925618D02*
X119088819Y-105687523D01*
X119088819Y-105687523D02*
X119136438Y-105592285D01*
X119136438Y-105592285D02*
X119184057Y-105544666D01*
X119184057Y-105544666D02*
X119279295Y-105497047D01*
X119279295Y-105497047D02*
X119374533Y-105497047D01*
X119374533Y-105497047D02*
X119517390Y-105544666D01*
X119517390Y-105544666D02*
X120088819Y-106116094D01*
X120088819Y-106116094D02*
X120088819Y-105497047D01*
X119088819Y-105163713D02*
X119088819Y-104497047D01*
X119088819Y-104497047D02*
X120088819Y-104925618D01*
X119993580Y-103544666D02*
X120041200Y-103592285D01*
X120041200Y-103592285D02*
X120088819Y-103735142D01*
X120088819Y-103735142D02*
X120088819Y-103830380D01*
X120088819Y-103830380D02*
X120041200Y-103973237D01*
X120041200Y-103973237D02*
X119945961Y-104068475D01*
X119945961Y-104068475D02*
X119850723Y-104116094D01*
X119850723Y-104116094D02*
X119660247Y-104163713D01*
X119660247Y-104163713D02*
X119517390Y-104163713D01*
X119517390Y-104163713D02*
X119326914Y-104116094D01*
X119326914Y-104116094D02*
X119231676Y-104068475D01*
X119231676Y-104068475D02*
X119136438Y-103973237D01*
X119136438Y-103973237D02*
X119088819Y-103830380D01*
X119088819Y-103830380D02*
X119088819Y-103735142D01*
X119088819Y-103735142D02*
X119136438Y-103592285D01*
X119136438Y-103592285D02*
X119184057Y-103544666D01*
X120088819Y-102592285D02*
X120088819Y-103163713D01*
X120088819Y-102877999D02*
X119088819Y-102877999D01*
X119088819Y-102877999D02*
X119231676Y-102973237D01*
X119231676Y-102973237D02*
X119326914Y-103068475D01*
X119326914Y-103068475D02*
X119374533Y-103163713D01*
X119184057Y-102211332D02*
X119136438Y-102163713D01*
X119136438Y-102163713D02*
X119088819Y-102068475D01*
X119088819Y-102068475D02*
X119088819Y-101830380D01*
X119088819Y-101830380D02*
X119136438Y-101735142D01*
X119136438Y-101735142D02*
X119184057Y-101687523D01*
X119184057Y-101687523D02*
X119279295Y-101639904D01*
X119279295Y-101639904D02*
X119374533Y-101639904D01*
X119374533Y-101639904D02*
X119517390Y-101687523D01*
X119517390Y-101687523D02*
X120088819Y-102258951D01*
X120088819Y-102258951D02*
X120088819Y-101639904D01*
X119517390Y-101068475D02*
X119469771Y-101163713D01*
X119469771Y-101163713D02*
X119422152Y-101211332D01*
X119422152Y-101211332D02*
X119326914Y-101258951D01*
X119326914Y-101258951D02*
X119279295Y-101258951D01*
X119279295Y-101258951D02*
X119184057Y-101211332D01*
X119184057Y-101211332D02*
X119136438Y-101163713D01*
X119136438Y-101163713D02*
X119088819Y-101068475D01*
X119088819Y-101068475D02*
X119088819Y-100877999D01*
X119088819Y-100877999D02*
X119136438Y-100782761D01*
X119136438Y-100782761D02*
X119184057Y-100735142D01*
X119184057Y-100735142D02*
X119279295Y-100687523D01*
X119279295Y-100687523D02*
X119326914Y-100687523D01*
X119326914Y-100687523D02*
X119422152Y-100735142D01*
X119422152Y-100735142D02*
X119469771Y-100782761D01*
X119469771Y-100782761D02*
X119517390Y-100877999D01*
X119517390Y-100877999D02*
X119517390Y-101068475D01*
X119517390Y-101068475D02*
X119565009Y-101163713D01*
X119565009Y-101163713D02*
X119612628Y-101211332D01*
X119612628Y-101211332D02*
X119707866Y-101258951D01*
X119707866Y-101258951D02*
X119898342Y-101258951D01*
X119898342Y-101258951D02*
X119993580Y-101211332D01*
X119993580Y-101211332D02*
X120041200Y-101163713D01*
X120041200Y-101163713D02*
X120088819Y-101068475D01*
X120088819Y-101068475D02*
X120088819Y-100877999D01*
X120088819Y-100877999D02*
X120041200Y-100782761D01*
X120041200Y-100782761D02*
X119993580Y-100735142D01*
X119993580Y-100735142D02*
X119898342Y-100687523D01*
X119898342Y-100687523D02*
X119707866Y-100687523D01*
X119707866Y-100687523D02*
X119612628Y-100735142D01*
X119612628Y-100735142D02*
X119565009Y-100782761D01*
X119565009Y-100782761D02*
X119517390Y-100877999D01*
X135852819Y-104901904D02*
X136662342Y-104901904D01*
X136662342Y-104901904D02*
X136757580Y-104854285D01*
X136757580Y-104854285D02*
X136805200Y-104806666D01*
X136805200Y-104806666D02*
X136852819Y-104711428D01*
X136852819Y-104711428D02*
X136852819Y-104520952D01*
X136852819Y-104520952D02*
X136805200Y-104425714D01*
X136805200Y-104425714D02*
X136757580Y-104378095D01*
X136757580Y-104378095D02*
X136662342Y-104330476D01*
X136662342Y-104330476D02*
X135852819Y-104330476D01*
X135852819Y-103425714D02*
X135852819Y-103616190D01*
X135852819Y-103616190D02*
X135900438Y-103711428D01*
X135900438Y-103711428D02*
X135948057Y-103759047D01*
X135948057Y-103759047D02*
X136090914Y-103854285D01*
X136090914Y-103854285D02*
X136281390Y-103901904D01*
X136281390Y-103901904D02*
X136662342Y-103901904D01*
X136662342Y-103901904D02*
X136757580Y-103854285D01*
X136757580Y-103854285D02*
X136805200Y-103806666D01*
X136805200Y-103806666D02*
X136852819Y-103711428D01*
X136852819Y-103711428D02*
X136852819Y-103520952D01*
X136852819Y-103520952D02*
X136805200Y-103425714D01*
X136805200Y-103425714D02*
X136757580Y-103378095D01*
X136757580Y-103378095D02*
X136662342Y-103330476D01*
X136662342Y-103330476D02*
X136424247Y-103330476D01*
X136424247Y-103330476D02*
X136329009Y-103378095D01*
X136329009Y-103378095D02*
X136281390Y-103425714D01*
X136281390Y-103425714D02*
X136233771Y-103520952D01*
X136233771Y-103520952D02*
X136233771Y-103711428D01*
X136233771Y-103711428D02*
X136281390Y-103806666D01*
X136281390Y-103806666D02*
X136329009Y-103854285D01*
X136329009Y-103854285D02*
X136424247Y-103901904D01*
X-1010714Y-17279819D02*
X-1010714Y-16279819D01*
X-1010714Y-16279819D02*
X-677381Y-16994104D01*
X-677381Y-16994104D02*
X-344048Y-16279819D01*
X-344048Y-16279819D02*
X-344048Y-17279819D01*
X274999Y-17279819D02*
X179761Y-17232200D01*
X179761Y-17232200D02*
X132142Y-17184580D01*
X132142Y-17184580D02*
X84523Y-17089342D01*
X84523Y-17089342D02*
X84523Y-16803628D01*
X84523Y-16803628D02*
X132142Y-16708390D01*
X132142Y-16708390D02*
X179761Y-16660771D01*
X179761Y-16660771D02*
X274999Y-16613152D01*
X274999Y-16613152D02*
X417856Y-16613152D01*
X417856Y-16613152D02*
X513094Y-16660771D01*
X513094Y-16660771D02*
X560713Y-16708390D01*
X560713Y-16708390D02*
X608332Y-16803628D01*
X608332Y-16803628D02*
X608332Y-17089342D01*
X608332Y-17089342D02*
X560713Y-17184580D01*
X560713Y-17184580D02*
X513094Y-17232200D01*
X513094Y-17232200D02*
X417856Y-17279819D01*
X417856Y-17279819D02*
X274999Y-17279819D01*
X1465475Y-16613152D02*
X1465475Y-17279819D01*
X1036904Y-16613152D02*
X1036904Y-17136961D01*
X1036904Y-17136961D02*
X1084523Y-17232200D01*
X1084523Y-17232200D02*
X1179761Y-17279819D01*
X1179761Y-17279819D02*
X1322618Y-17279819D01*
X1322618Y-17279819D02*
X1417856Y-17232200D01*
X1417856Y-17232200D02*
X1465475Y-17184580D01*
X1941666Y-16613152D02*
X1941666Y-17279819D01*
X1941666Y-16708390D02*
X1989285Y-16660771D01*
X1989285Y-16660771D02*
X2084523Y-16613152D01*
X2084523Y-16613152D02*
X2227380Y-16613152D01*
X2227380Y-16613152D02*
X2322618Y-16660771D01*
X2322618Y-16660771D02*
X2370237Y-16756009D01*
X2370237Y-16756009D02*
X2370237Y-17279819D01*
X2703571Y-16613152D02*
X3084523Y-16613152D01*
X2846428Y-16279819D02*
X2846428Y-17136961D01*
X2846428Y-17136961D02*
X2894047Y-17232200D01*
X2894047Y-17232200D02*
X2989285Y-17279819D01*
X2989285Y-17279819D02*
X3084523Y-17279819D01*
X3417857Y-17279819D02*
X3417857Y-16613152D01*
X3417857Y-16279819D02*
X3370238Y-16327438D01*
X3370238Y-16327438D02*
X3417857Y-16375057D01*
X3417857Y-16375057D02*
X3465476Y-16327438D01*
X3465476Y-16327438D02*
X3417857Y-16279819D01*
X3417857Y-16279819D02*
X3417857Y-16375057D01*
X3894047Y-16613152D02*
X3894047Y-17279819D01*
X3894047Y-16708390D02*
X3941666Y-16660771D01*
X3941666Y-16660771D02*
X4036904Y-16613152D01*
X4036904Y-16613152D02*
X4179761Y-16613152D01*
X4179761Y-16613152D02*
X4274999Y-16660771D01*
X4274999Y-16660771D02*
X4322618Y-16756009D01*
X4322618Y-16756009D02*
X4322618Y-17279819D01*
X5227380Y-16613152D02*
X5227380Y-17422676D01*
X5227380Y-17422676D02*
X5179761Y-17517914D01*
X5179761Y-17517914D02*
X5132142Y-17565533D01*
X5132142Y-17565533D02*
X5036904Y-17613152D01*
X5036904Y-17613152D02*
X4894047Y-17613152D01*
X4894047Y-17613152D02*
X4798809Y-17565533D01*
X5227380Y-17232200D02*
X5132142Y-17279819D01*
X5132142Y-17279819D02*
X4941666Y-17279819D01*
X4941666Y-17279819D02*
X4846428Y-17232200D01*
X4846428Y-17232200D02*
X4798809Y-17184580D01*
X4798809Y-17184580D02*
X4751190Y-17089342D01*
X4751190Y-17089342D02*
X4751190Y-16803628D01*
X4751190Y-16803628D02*
X4798809Y-16708390D01*
X4798809Y-16708390D02*
X4846428Y-16660771D01*
X4846428Y-16660771D02*
X4941666Y-16613152D01*
X4941666Y-16613152D02*
X5132142Y-16613152D01*
X5132142Y-16613152D02*
X5227380Y-16660771D01*
X5703571Y-17279819D02*
X5703571Y-16279819D01*
X5703571Y-16756009D02*
X6274999Y-16756009D01*
X6274999Y-17279819D02*
X6274999Y-16279819D01*
X6894047Y-17279819D02*
X6798809Y-17232200D01*
X6798809Y-17232200D02*
X6751190Y-17184580D01*
X6751190Y-17184580D02*
X6703571Y-17089342D01*
X6703571Y-17089342D02*
X6703571Y-16803628D01*
X6703571Y-16803628D02*
X6751190Y-16708390D01*
X6751190Y-16708390D02*
X6798809Y-16660771D01*
X6798809Y-16660771D02*
X6894047Y-16613152D01*
X6894047Y-16613152D02*
X7036904Y-16613152D01*
X7036904Y-16613152D02*
X7132142Y-16660771D01*
X7132142Y-16660771D02*
X7179761Y-16708390D01*
X7179761Y-16708390D02*
X7227380Y-16803628D01*
X7227380Y-16803628D02*
X7227380Y-17089342D01*
X7227380Y-17089342D02*
X7179761Y-17184580D01*
X7179761Y-17184580D02*
X7132142Y-17232200D01*
X7132142Y-17232200D02*
X7036904Y-17279819D01*
X7036904Y-17279819D02*
X6894047Y-17279819D01*
X7798809Y-17279819D02*
X7703571Y-17232200D01*
X7703571Y-17232200D02*
X7655952Y-17136961D01*
X7655952Y-17136961D02*
X7655952Y-16279819D01*
X8560714Y-17232200D02*
X8465476Y-17279819D01*
X8465476Y-17279819D02*
X8275000Y-17279819D01*
X8275000Y-17279819D02*
X8179762Y-17232200D01*
X8179762Y-17232200D02*
X8132143Y-17136961D01*
X8132143Y-17136961D02*
X8132143Y-16756009D01*
X8132143Y-16756009D02*
X8179762Y-16660771D01*
X8179762Y-16660771D02*
X8275000Y-16613152D01*
X8275000Y-16613152D02*
X8465476Y-16613152D01*
X8465476Y-16613152D02*
X8560714Y-16660771D01*
X8560714Y-16660771D02*
X8608333Y-16756009D01*
X8608333Y-16756009D02*
X8608333Y-16851247D01*
X8608333Y-16851247D02*
X8132143Y-16946485D01*
X3013095Y-12779819D02*
X3013095Y-11779819D01*
X3013095Y-12256009D02*
X3584523Y-12256009D01*
X3584523Y-12779819D02*
X3584523Y-11779819D01*
X4013095Y-11875057D02*
X4060714Y-11827438D01*
X4060714Y-11827438D02*
X4155952Y-11779819D01*
X4155952Y-11779819D02*
X4394047Y-11779819D01*
X4394047Y-11779819D02*
X4489285Y-11827438D01*
X4489285Y-11827438D02*
X4536904Y-11875057D01*
X4536904Y-11875057D02*
X4584523Y-11970295D01*
X4584523Y-11970295D02*
X4584523Y-12065533D01*
X4584523Y-12065533D02*
X4536904Y-12208390D01*
X4536904Y-12208390D02*
X3965476Y-12779819D01*
X3965476Y-12779819D02*
X4584523Y-12779819D01*
X181556819Y-104552666D02*
X181080628Y-104885999D01*
X181556819Y-105124094D02*
X180556819Y-105124094D01*
X180556819Y-105124094D02*
X180556819Y-104743142D01*
X180556819Y-104743142D02*
X180604438Y-104647904D01*
X180604438Y-104647904D02*
X180652057Y-104600285D01*
X180652057Y-104600285D02*
X180747295Y-104552666D01*
X180747295Y-104552666D02*
X180890152Y-104552666D01*
X180890152Y-104552666D02*
X180985390Y-104600285D01*
X180985390Y-104600285D02*
X181033009Y-104647904D01*
X181033009Y-104647904D02*
X181080628Y-104743142D01*
X181080628Y-104743142D02*
X181080628Y-105124094D01*
X181556819Y-104124094D02*
X180556819Y-104124094D01*
X180556819Y-104124094D02*
X180556819Y-103743142D01*
X180556819Y-103743142D02*
X180604438Y-103647904D01*
X180604438Y-103647904D02*
X180652057Y-103600285D01*
X180652057Y-103600285D02*
X180747295Y-103552666D01*
X180747295Y-103552666D02*
X180890152Y-103552666D01*
X180890152Y-103552666D02*
X180985390Y-103600285D01*
X180985390Y-103600285D02*
X181033009Y-103647904D01*
X181033009Y-103647904D02*
X181080628Y-103743142D01*
X181080628Y-103743142D02*
X181080628Y-104124094D01*
X181556819Y-102600285D02*
X181556819Y-103171713D01*
X181556819Y-102885999D02*
X180556819Y-102885999D01*
X180556819Y-102885999D02*
X180699676Y-102981237D01*
X180699676Y-102981237D02*
X180794914Y-103076475D01*
X180794914Y-103076475D02*
X180842533Y-103171713D01*
X208407333Y-90529580D02*
X208359714Y-90577200D01*
X208359714Y-90577200D02*
X208216857Y-90624819D01*
X208216857Y-90624819D02*
X208121619Y-90624819D01*
X208121619Y-90624819D02*
X207978762Y-90577200D01*
X207978762Y-90577200D02*
X207883524Y-90481961D01*
X207883524Y-90481961D02*
X207835905Y-90386723D01*
X207835905Y-90386723D02*
X207788286Y-90196247D01*
X207788286Y-90196247D02*
X207788286Y-90053390D01*
X207788286Y-90053390D02*
X207835905Y-89862914D01*
X207835905Y-89862914D02*
X207883524Y-89767676D01*
X207883524Y-89767676D02*
X207978762Y-89672438D01*
X207978762Y-89672438D02*
X208121619Y-89624819D01*
X208121619Y-89624819D02*
X208216857Y-89624819D01*
X208216857Y-89624819D02*
X208359714Y-89672438D01*
X208359714Y-89672438D02*
X208407333Y-89720057D01*
X208978762Y-90053390D02*
X208883524Y-90005771D01*
X208883524Y-90005771D02*
X208835905Y-89958152D01*
X208835905Y-89958152D02*
X208788286Y-89862914D01*
X208788286Y-89862914D02*
X208788286Y-89815295D01*
X208788286Y-89815295D02*
X208835905Y-89720057D01*
X208835905Y-89720057D02*
X208883524Y-89672438D01*
X208883524Y-89672438D02*
X208978762Y-89624819D01*
X208978762Y-89624819D02*
X209169238Y-89624819D01*
X209169238Y-89624819D02*
X209264476Y-89672438D01*
X209264476Y-89672438D02*
X209312095Y-89720057D01*
X209312095Y-89720057D02*
X209359714Y-89815295D01*
X209359714Y-89815295D02*
X209359714Y-89862914D01*
X209359714Y-89862914D02*
X209312095Y-89958152D01*
X209312095Y-89958152D02*
X209264476Y-90005771D01*
X209264476Y-90005771D02*
X209169238Y-90053390D01*
X209169238Y-90053390D02*
X208978762Y-90053390D01*
X208978762Y-90053390D02*
X208883524Y-90101009D01*
X208883524Y-90101009D02*
X208835905Y-90148628D01*
X208835905Y-90148628D02*
X208788286Y-90243866D01*
X208788286Y-90243866D02*
X208788286Y-90434342D01*
X208788286Y-90434342D02*
X208835905Y-90529580D01*
X208835905Y-90529580D02*
X208883524Y-90577200D01*
X208883524Y-90577200D02*
X208978762Y-90624819D01*
X208978762Y-90624819D02*
X209169238Y-90624819D01*
X209169238Y-90624819D02*
X209264476Y-90577200D01*
X209264476Y-90577200D02*
X209312095Y-90529580D01*
X209312095Y-90529580D02*
X209359714Y-90434342D01*
X209359714Y-90434342D02*
X209359714Y-90243866D01*
X209359714Y-90243866D02*
X209312095Y-90148628D01*
X209312095Y-90148628D02*
X209264476Y-90101009D01*
X209264476Y-90101009D02*
X209169238Y-90053390D01*
X145288333Y-91291580D02*
X145240714Y-91339200D01*
X145240714Y-91339200D02*
X145097857Y-91386819D01*
X145097857Y-91386819D02*
X145002619Y-91386819D01*
X145002619Y-91386819D02*
X144859762Y-91339200D01*
X144859762Y-91339200D02*
X144764524Y-91243961D01*
X144764524Y-91243961D02*
X144716905Y-91148723D01*
X144716905Y-91148723D02*
X144669286Y-90958247D01*
X144669286Y-90958247D02*
X144669286Y-90815390D01*
X144669286Y-90815390D02*
X144716905Y-90624914D01*
X144716905Y-90624914D02*
X144764524Y-90529676D01*
X144764524Y-90529676D02*
X144859762Y-90434438D01*
X144859762Y-90434438D02*
X145002619Y-90386819D01*
X145002619Y-90386819D02*
X145097857Y-90386819D01*
X145097857Y-90386819D02*
X145240714Y-90434438D01*
X145240714Y-90434438D02*
X145288333Y-90482057D01*
X146145476Y-90720152D02*
X146145476Y-91386819D01*
X145907381Y-90339200D02*
X145669286Y-91053485D01*
X145669286Y-91053485D02*
X146288333Y-91053485D01*
X128172819Y-129547571D02*
X127172819Y-129547571D01*
X127172819Y-129547571D02*
X127172819Y-129166619D01*
X127172819Y-129166619D02*
X127220438Y-129071381D01*
X127220438Y-129071381D02*
X127268057Y-129023762D01*
X127268057Y-129023762D02*
X127363295Y-128976143D01*
X127363295Y-128976143D02*
X127506152Y-128976143D01*
X127506152Y-128976143D02*
X127601390Y-129023762D01*
X127601390Y-129023762D02*
X127649009Y-129071381D01*
X127649009Y-129071381D02*
X127696628Y-129166619D01*
X127696628Y-129166619D02*
X127696628Y-129547571D01*
X127887104Y-128595190D02*
X127887104Y-128119000D01*
X128172819Y-128690428D02*
X127172819Y-128357095D01*
X127172819Y-128357095D02*
X128172819Y-128023762D01*
X128172819Y-127214238D02*
X128172819Y-127690428D01*
X128172819Y-127690428D02*
X127172819Y-127690428D01*
X128172819Y-126357095D02*
X128172819Y-126928523D01*
X128172819Y-126642809D02*
X127172819Y-126642809D01*
X127172819Y-126642809D02*
X127315676Y-126738047D01*
X127315676Y-126738047D02*
X127410914Y-126833285D01*
X127410914Y-126833285D02*
X127458533Y-126928523D01*
X127172819Y-125499952D02*
X127172819Y-125690428D01*
X127172819Y-125690428D02*
X127220438Y-125785666D01*
X127220438Y-125785666D02*
X127268057Y-125833285D01*
X127268057Y-125833285D02*
X127410914Y-125928523D01*
X127410914Y-125928523D02*
X127601390Y-125976142D01*
X127601390Y-125976142D02*
X127982342Y-125976142D01*
X127982342Y-125976142D02*
X128077580Y-125928523D01*
X128077580Y-125928523D02*
X128125200Y-125880904D01*
X128125200Y-125880904D02*
X128172819Y-125785666D01*
X128172819Y-125785666D02*
X128172819Y-125595190D01*
X128172819Y-125595190D02*
X128125200Y-125499952D01*
X128125200Y-125499952D02*
X128077580Y-125452333D01*
X128077580Y-125452333D02*
X127982342Y-125404714D01*
X127982342Y-125404714D02*
X127744247Y-125404714D01*
X127744247Y-125404714D02*
X127649009Y-125452333D01*
X127649009Y-125452333D02*
X127601390Y-125499952D01*
X127601390Y-125499952D02*
X127553771Y-125595190D01*
X127553771Y-125595190D02*
X127553771Y-125785666D01*
X127553771Y-125785666D02*
X127601390Y-125880904D01*
X127601390Y-125880904D02*
X127649009Y-125928523D01*
X127649009Y-125928523D02*
X127744247Y-125976142D01*
X128172819Y-124499952D02*
X128172819Y-124976142D01*
X128172819Y-124976142D02*
X127172819Y-124976142D01*
X127601390Y-124023761D02*
X127553771Y-124118999D01*
X127553771Y-124118999D02*
X127506152Y-124166618D01*
X127506152Y-124166618D02*
X127410914Y-124214237D01*
X127410914Y-124214237D02*
X127363295Y-124214237D01*
X127363295Y-124214237D02*
X127268057Y-124166618D01*
X127268057Y-124166618D02*
X127220438Y-124118999D01*
X127220438Y-124118999D02*
X127172819Y-124023761D01*
X127172819Y-124023761D02*
X127172819Y-123833285D01*
X127172819Y-123833285D02*
X127220438Y-123738047D01*
X127220438Y-123738047D02*
X127268057Y-123690428D01*
X127268057Y-123690428D02*
X127363295Y-123642809D01*
X127363295Y-123642809D02*
X127410914Y-123642809D01*
X127410914Y-123642809D02*
X127506152Y-123690428D01*
X127506152Y-123690428D02*
X127553771Y-123738047D01*
X127553771Y-123738047D02*
X127601390Y-123833285D01*
X127601390Y-123833285D02*
X127601390Y-124023761D01*
X127601390Y-124023761D02*
X127649009Y-124118999D01*
X127649009Y-124118999D02*
X127696628Y-124166618D01*
X127696628Y-124166618D02*
X127791866Y-124214237D01*
X127791866Y-124214237D02*
X127982342Y-124214237D01*
X127982342Y-124214237D02*
X128077580Y-124166618D01*
X128077580Y-124166618D02*
X128125200Y-124118999D01*
X128125200Y-124118999D02*
X128172819Y-124023761D01*
X128172819Y-124023761D02*
X128172819Y-123833285D01*
X128172819Y-123833285D02*
X128125200Y-123738047D01*
X128125200Y-123738047D02*
X128077580Y-123690428D01*
X128077580Y-123690428D02*
X127982342Y-123642809D01*
X127982342Y-123642809D02*
X127791866Y-123642809D01*
X127791866Y-123642809D02*
X127696628Y-123690428D01*
X127696628Y-123690428D02*
X127649009Y-123738047D01*
X127649009Y-123738047D02*
X127601390Y-123833285D01*
X140932819Y-127857094D02*
X141742342Y-127857094D01*
X141742342Y-127857094D02*
X141837580Y-127809475D01*
X141837580Y-127809475D02*
X141885200Y-127761856D01*
X141885200Y-127761856D02*
X141932819Y-127666618D01*
X141932819Y-127666618D02*
X141932819Y-127476142D01*
X141932819Y-127476142D02*
X141885200Y-127380904D01*
X141885200Y-127380904D02*
X141837580Y-127333285D01*
X141837580Y-127333285D02*
X141742342Y-127285666D01*
X141742342Y-127285666D02*
X140932819Y-127285666D01*
X141932819Y-126285666D02*
X141932819Y-126857094D01*
X141932819Y-126571380D02*
X140932819Y-126571380D01*
X140932819Y-126571380D02*
X141075676Y-126666618D01*
X141075676Y-126666618D02*
X141170914Y-126761856D01*
X141170914Y-126761856D02*
X141218533Y-126857094D01*
X140932819Y-125666618D02*
X140932819Y-125571380D01*
X140932819Y-125571380D02*
X140980438Y-125476142D01*
X140980438Y-125476142D02*
X141028057Y-125428523D01*
X141028057Y-125428523D02*
X141123295Y-125380904D01*
X141123295Y-125380904D02*
X141313771Y-125333285D01*
X141313771Y-125333285D02*
X141551866Y-125333285D01*
X141551866Y-125333285D02*
X141742342Y-125380904D01*
X141742342Y-125380904D02*
X141837580Y-125428523D01*
X141837580Y-125428523D02*
X141885200Y-125476142D01*
X141885200Y-125476142D02*
X141932819Y-125571380D01*
X141932819Y-125571380D02*
X141932819Y-125666618D01*
X141932819Y-125666618D02*
X141885200Y-125761856D01*
X141885200Y-125761856D02*
X141837580Y-125809475D01*
X141837580Y-125809475D02*
X141742342Y-125857094D01*
X141742342Y-125857094D02*
X141551866Y-125904713D01*
X141551866Y-125904713D02*
X141313771Y-125904713D01*
X141313771Y-125904713D02*
X141123295Y-125857094D01*
X141123295Y-125857094D02*
X141028057Y-125809475D01*
X141028057Y-125809475D02*
X140980438Y-125761856D01*
X140980438Y-125761856D02*
X140932819Y-125666618D01*
X183493580Y-59896666D02*
X183541200Y-59944285D01*
X183541200Y-59944285D02*
X183588819Y-60087142D01*
X183588819Y-60087142D02*
X183588819Y-60182380D01*
X183588819Y-60182380D02*
X183541200Y-60325237D01*
X183541200Y-60325237D02*
X183445961Y-60420475D01*
X183445961Y-60420475D02*
X183350723Y-60468094D01*
X183350723Y-60468094D02*
X183160247Y-60515713D01*
X183160247Y-60515713D02*
X183017390Y-60515713D01*
X183017390Y-60515713D02*
X182826914Y-60468094D01*
X182826914Y-60468094D02*
X182731676Y-60420475D01*
X182731676Y-60420475D02*
X182636438Y-60325237D01*
X182636438Y-60325237D02*
X182588819Y-60182380D01*
X182588819Y-60182380D02*
X182588819Y-60087142D01*
X182588819Y-60087142D02*
X182636438Y-59944285D01*
X182636438Y-59944285D02*
X182684057Y-59896666D01*
X182684057Y-59515713D02*
X182636438Y-59468094D01*
X182636438Y-59468094D02*
X182588819Y-59372856D01*
X182588819Y-59372856D02*
X182588819Y-59134761D01*
X182588819Y-59134761D02*
X182636438Y-59039523D01*
X182636438Y-59039523D02*
X182684057Y-58991904D01*
X182684057Y-58991904D02*
X182779295Y-58944285D01*
X182779295Y-58944285D02*
X182874533Y-58944285D01*
X182874533Y-58944285D02*
X183017390Y-58991904D01*
X183017390Y-58991904D02*
X183588819Y-59563332D01*
X183588819Y-59563332D02*
X183588819Y-58944285D01*
D11*
X220617262Y-57119927D02*
X220617262Y-57443737D01*
X220617262Y-57443737D02*
X220636309Y-57481832D01*
X220636309Y-57481832D02*
X220655357Y-57500880D01*
X220655357Y-57500880D02*
X220693452Y-57519927D01*
X220693452Y-57519927D02*
X220769643Y-57519927D01*
X220769643Y-57519927D02*
X220807738Y-57500880D01*
X220807738Y-57500880D02*
X220826785Y-57481832D01*
X220826785Y-57481832D02*
X220845833Y-57443737D01*
X220845833Y-57443737D02*
X220845833Y-57119927D01*
X221245833Y-57519927D02*
X221017262Y-57519927D01*
X221131548Y-57519927D02*
X221131548Y-57119927D01*
X221131548Y-57119927D02*
X221093452Y-57177070D01*
X221093452Y-57177070D02*
X221055357Y-57215165D01*
X221055357Y-57215165D02*
X221017262Y-57234213D01*
X221626785Y-57519927D02*
X221398214Y-57519927D01*
X221512500Y-57519927D02*
X221512500Y-57119927D01*
X221512500Y-57119927D02*
X221474404Y-57177070D01*
X221474404Y-57177070D02*
X221436309Y-57215165D01*
X221436309Y-57215165D02*
X221398214Y-57234213D01*
D10*
X186872952Y-119640819D02*
X187539618Y-119640819D01*
X187539618Y-119640819D02*
X187111047Y-120640819D01*
X188349142Y-119974152D02*
X188349142Y-120640819D01*
X188111047Y-119593200D02*
X187872952Y-120307485D01*
X187872952Y-120307485D02*
X188491999Y-120307485D01*
X189349142Y-120640819D02*
X188872952Y-120640819D01*
X188872952Y-120640819D02*
X188872952Y-119640819D01*
X189634857Y-120593200D02*
X189777714Y-120640819D01*
X189777714Y-120640819D02*
X190015809Y-120640819D01*
X190015809Y-120640819D02*
X190111047Y-120593200D01*
X190111047Y-120593200D02*
X190158666Y-120545580D01*
X190158666Y-120545580D02*
X190206285Y-120450342D01*
X190206285Y-120450342D02*
X190206285Y-120355104D01*
X190206285Y-120355104D02*
X190158666Y-120259866D01*
X190158666Y-120259866D02*
X190111047Y-120212247D01*
X190111047Y-120212247D02*
X190015809Y-120164628D01*
X190015809Y-120164628D02*
X189825333Y-120117009D01*
X189825333Y-120117009D02*
X189730095Y-120069390D01*
X189730095Y-120069390D02*
X189682476Y-120021771D01*
X189682476Y-120021771D02*
X189634857Y-119926533D01*
X189634857Y-119926533D02*
X189634857Y-119831295D01*
X189634857Y-119831295D02*
X189682476Y-119736057D01*
X189682476Y-119736057D02*
X189730095Y-119688438D01*
X189730095Y-119688438D02*
X189825333Y-119640819D01*
X189825333Y-119640819D02*
X190063428Y-119640819D01*
X190063428Y-119640819D02*
X190206285Y-119688438D01*
X191063428Y-119640819D02*
X190872952Y-119640819D01*
X190872952Y-119640819D02*
X190777714Y-119688438D01*
X190777714Y-119688438D02*
X190730095Y-119736057D01*
X190730095Y-119736057D02*
X190634857Y-119878914D01*
X190634857Y-119878914D02*
X190587238Y-120069390D01*
X190587238Y-120069390D02*
X190587238Y-120450342D01*
X190587238Y-120450342D02*
X190634857Y-120545580D01*
X190634857Y-120545580D02*
X190682476Y-120593200D01*
X190682476Y-120593200D02*
X190777714Y-120640819D01*
X190777714Y-120640819D02*
X190968190Y-120640819D01*
X190968190Y-120640819D02*
X191063428Y-120593200D01*
X191063428Y-120593200D02*
X191111047Y-120545580D01*
X191111047Y-120545580D02*
X191158666Y-120450342D01*
X191158666Y-120450342D02*
X191158666Y-120212247D01*
X191158666Y-120212247D02*
X191111047Y-120117009D01*
X191111047Y-120117009D02*
X191063428Y-120069390D01*
X191063428Y-120069390D02*
X190968190Y-120021771D01*
X190968190Y-120021771D02*
X190777714Y-120021771D01*
X190777714Y-120021771D02*
X190682476Y-120069390D01*
X190682476Y-120069390D02*
X190634857Y-120117009D01*
X190634857Y-120117009D02*
X190587238Y-120212247D01*
X191730095Y-120069390D02*
X191634857Y-120021771D01*
X191634857Y-120021771D02*
X191587238Y-119974152D01*
X191587238Y-119974152D02*
X191539619Y-119878914D01*
X191539619Y-119878914D02*
X191539619Y-119831295D01*
X191539619Y-119831295D02*
X191587238Y-119736057D01*
X191587238Y-119736057D02*
X191634857Y-119688438D01*
X191634857Y-119688438D02*
X191730095Y-119640819D01*
X191730095Y-119640819D02*
X191920571Y-119640819D01*
X191920571Y-119640819D02*
X192015809Y-119688438D01*
X192015809Y-119688438D02*
X192063428Y-119736057D01*
X192063428Y-119736057D02*
X192111047Y-119831295D01*
X192111047Y-119831295D02*
X192111047Y-119878914D01*
X192111047Y-119878914D02*
X192063428Y-119974152D01*
X192063428Y-119974152D02*
X192015809Y-120021771D01*
X192015809Y-120021771D02*
X191920571Y-120069390D01*
X191920571Y-120069390D02*
X191730095Y-120069390D01*
X191730095Y-120069390D02*
X191634857Y-120117009D01*
X191634857Y-120117009D02*
X191587238Y-120164628D01*
X191587238Y-120164628D02*
X191539619Y-120259866D01*
X191539619Y-120259866D02*
X191539619Y-120450342D01*
X191539619Y-120450342D02*
X191587238Y-120545580D01*
X191587238Y-120545580D02*
X191634857Y-120593200D01*
X191634857Y-120593200D02*
X191730095Y-120640819D01*
X191730095Y-120640819D02*
X191920571Y-120640819D01*
X191920571Y-120640819D02*
X192015809Y-120593200D01*
X192015809Y-120593200D02*
X192063428Y-120545580D01*
X192063428Y-120545580D02*
X192111047Y-120450342D01*
X192111047Y-120450342D02*
X192111047Y-120259866D01*
X192111047Y-120259866D02*
X192063428Y-120164628D01*
X192063428Y-120164628D02*
X192015809Y-120117009D01*
X192015809Y-120117009D02*
X191920571Y-120069390D01*
X192682476Y-120069390D02*
X192587238Y-120021771D01*
X192587238Y-120021771D02*
X192539619Y-119974152D01*
X192539619Y-119974152D02*
X192492000Y-119878914D01*
X192492000Y-119878914D02*
X192492000Y-119831295D01*
X192492000Y-119831295D02*
X192539619Y-119736057D01*
X192539619Y-119736057D02*
X192587238Y-119688438D01*
X192587238Y-119688438D02*
X192682476Y-119640819D01*
X192682476Y-119640819D02*
X192872952Y-119640819D01*
X192872952Y-119640819D02*
X192968190Y-119688438D01*
X192968190Y-119688438D02*
X193015809Y-119736057D01*
X193015809Y-119736057D02*
X193063428Y-119831295D01*
X193063428Y-119831295D02*
X193063428Y-119878914D01*
X193063428Y-119878914D02*
X193015809Y-119974152D01*
X193015809Y-119974152D02*
X192968190Y-120021771D01*
X192968190Y-120021771D02*
X192872952Y-120069390D01*
X192872952Y-120069390D02*
X192682476Y-120069390D01*
X192682476Y-120069390D02*
X192587238Y-120117009D01*
X192587238Y-120117009D02*
X192539619Y-120164628D01*
X192539619Y-120164628D02*
X192492000Y-120259866D01*
X192492000Y-120259866D02*
X192492000Y-120450342D01*
X192492000Y-120450342D02*
X192539619Y-120545580D01*
X192539619Y-120545580D02*
X192587238Y-120593200D01*
X192587238Y-120593200D02*
X192682476Y-120640819D01*
X192682476Y-120640819D02*
X192872952Y-120640819D01*
X192872952Y-120640819D02*
X192968190Y-120593200D01*
X192968190Y-120593200D02*
X193015809Y-120545580D01*
X193015809Y-120545580D02*
X193063428Y-120450342D01*
X193063428Y-120450342D02*
X193063428Y-120259866D01*
X193063428Y-120259866D02*
X193015809Y-120164628D01*
X193015809Y-120164628D02*
X192968190Y-120117009D01*
X192968190Y-120117009D02*
X192872952Y-120069390D01*
X189230095Y-105880819D02*
X189230095Y-106690342D01*
X189230095Y-106690342D02*
X189277714Y-106785580D01*
X189277714Y-106785580D02*
X189325333Y-106833200D01*
X189325333Y-106833200D02*
X189420571Y-106880819D01*
X189420571Y-106880819D02*
X189611047Y-106880819D01*
X189611047Y-106880819D02*
X189706285Y-106833200D01*
X189706285Y-106833200D02*
X189753904Y-106785580D01*
X189753904Y-106785580D02*
X189801523Y-106690342D01*
X189801523Y-106690342D02*
X189801523Y-105880819D01*
X190420571Y-106309390D02*
X190325333Y-106261771D01*
X190325333Y-106261771D02*
X190277714Y-106214152D01*
X190277714Y-106214152D02*
X190230095Y-106118914D01*
X190230095Y-106118914D02*
X190230095Y-106071295D01*
X190230095Y-106071295D02*
X190277714Y-105976057D01*
X190277714Y-105976057D02*
X190325333Y-105928438D01*
X190325333Y-105928438D02*
X190420571Y-105880819D01*
X190420571Y-105880819D02*
X190611047Y-105880819D01*
X190611047Y-105880819D02*
X190706285Y-105928438D01*
X190706285Y-105928438D02*
X190753904Y-105976057D01*
X190753904Y-105976057D02*
X190801523Y-106071295D01*
X190801523Y-106071295D02*
X190801523Y-106118914D01*
X190801523Y-106118914D02*
X190753904Y-106214152D01*
X190753904Y-106214152D02*
X190706285Y-106261771D01*
X190706285Y-106261771D02*
X190611047Y-106309390D01*
X190611047Y-106309390D02*
X190420571Y-106309390D01*
X190420571Y-106309390D02*
X190325333Y-106357009D01*
X190325333Y-106357009D02*
X190277714Y-106404628D01*
X190277714Y-106404628D02*
X190230095Y-106499866D01*
X190230095Y-106499866D02*
X190230095Y-106690342D01*
X190230095Y-106690342D02*
X190277714Y-106785580D01*
X190277714Y-106785580D02*
X190325333Y-106833200D01*
X190325333Y-106833200D02*
X190420571Y-106880819D01*
X190420571Y-106880819D02*
X190611047Y-106880819D01*
X190611047Y-106880819D02*
X190706285Y-106833200D01*
X190706285Y-106833200D02*
X190753904Y-106785580D01*
X190753904Y-106785580D02*
X190801523Y-106690342D01*
X190801523Y-106690342D02*
X190801523Y-106499866D01*
X190801523Y-106499866D02*
X190753904Y-106404628D01*
X190753904Y-106404628D02*
X190706285Y-106357009D01*
X190706285Y-106357009D02*
X190611047Y-106309390D01*
X-1010714Y-8729819D02*
X-1010714Y-7729819D01*
X-1010714Y-7729819D02*
X-677381Y-8444104D01*
X-677381Y-8444104D02*
X-344048Y-7729819D01*
X-344048Y-7729819D02*
X-344048Y-8729819D01*
X274999Y-8729819D02*
X179761Y-8682200D01*
X179761Y-8682200D02*
X132142Y-8634580D01*
X132142Y-8634580D02*
X84523Y-8539342D01*
X84523Y-8539342D02*
X84523Y-8253628D01*
X84523Y-8253628D02*
X132142Y-8158390D01*
X132142Y-8158390D02*
X179761Y-8110771D01*
X179761Y-8110771D02*
X274999Y-8063152D01*
X274999Y-8063152D02*
X417856Y-8063152D01*
X417856Y-8063152D02*
X513094Y-8110771D01*
X513094Y-8110771D02*
X560713Y-8158390D01*
X560713Y-8158390D02*
X608332Y-8253628D01*
X608332Y-8253628D02*
X608332Y-8539342D01*
X608332Y-8539342D02*
X560713Y-8634580D01*
X560713Y-8634580D02*
X513094Y-8682200D01*
X513094Y-8682200D02*
X417856Y-8729819D01*
X417856Y-8729819D02*
X274999Y-8729819D01*
X1465475Y-8063152D02*
X1465475Y-8729819D01*
X1036904Y-8063152D02*
X1036904Y-8586961D01*
X1036904Y-8586961D02*
X1084523Y-8682200D01*
X1084523Y-8682200D02*
X1179761Y-8729819D01*
X1179761Y-8729819D02*
X1322618Y-8729819D01*
X1322618Y-8729819D02*
X1417856Y-8682200D01*
X1417856Y-8682200D02*
X1465475Y-8634580D01*
X1941666Y-8063152D02*
X1941666Y-8729819D01*
X1941666Y-8158390D02*
X1989285Y-8110771D01*
X1989285Y-8110771D02*
X2084523Y-8063152D01*
X2084523Y-8063152D02*
X2227380Y-8063152D01*
X2227380Y-8063152D02*
X2322618Y-8110771D01*
X2322618Y-8110771D02*
X2370237Y-8206009D01*
X2370237Y-8206009D02*
X2370237Y-8729819D01*
X2703571Y-8063152D02*
X3084523Y-8063152D01*
X2846428Y-7729819D02*
X2846428Y-8586961D01*
X2846428Y-8586961D02*
X2894047Y-8682200D01*
X2894047Y-8682200D02*
X2989285Y-8729819D01*
X2989285Y-8729819D02*
X3084523Y-8729819D01*
X3417857Y-8729819D02*
X3417857Y-8063152D01*
X3417857Y-7729819D02*
X3370238Y-7777438D01*
X3370238Y-7777438D02*
X3417857Y-7825057D01*
X3417857Y-7825057D02*
X3465476Y-7777438D01*
X3465476Y-7777438D02*
X3417857Y-7729819D01*
X3417857Y-7729819D02*
X3417857Y-7825057D01*
X3894047Y-8063152D02*
X3894047Y-8729819D01*
X3894047Y-8158390D02*
X3941666Y-8110771D01*
X3941666Y-8110771D02*
X4036904Y-8063152D01*
X4036904Y-8063152D02*
X4179761Y-8063152D01*
X4179761Y-8063152D02*
X4274999Y-8110771D01*
X4274999Y-8110771D02*
X4322618Y-8206009D01*
X4322618Y-8206009D02*
X4322618Y-8729819D01*
X5227380Y-8063152D02*
X5227380Y-8872676D01*
X5227380Y-8872676D02*
X5179761Y-8967914D01*
X5179761Y-8967914D02*
X5132142Y-9015533D01*
X5132142Y-9015533D02*
X5036904Y-9063152D01*
X5036904Y-9063152D02*
X4894047Y-9063152D01*
X4894047Y-9063152D02*
X4798809Y-9015533D01*
X5227380Y-8682200D02*
X5132142Y-8729819D01*
X5132142Y-8729819D02*
X4941666Y-8729819D01*
X4941666Y-8729819D02*
X4846428Y-8682200D01*
X4846428Y-8682200D02*
X4798809Y-8634580D01*
X4798809Y-8634580D02*
X4751190Y-8539342D01*
X4751190Y-8539342D02*
X4751190Y-8253628D01*
X4751190Y-8253628D02*
X4798809Y-8158390D01*
X4798809Y-8158390D02*
X4846428Y-8110771D01*
X4846428Y-8110771D02*
X4941666Y-8063152D01*
X4941666Y-8063152D02*
X5132142Y-8063152D01*
X5132142Y-8063152D02*
X5227380Y-8110771D01*
X5703571Y-8729819D02*
X5703571Y-7729819D01*
X5703571Y-8206009D02*
X6274999Y-8206009D01*
X6274999Y-8729819D02*
X6274999Y-7729819D01*
X6894047Y-8729819D02*
X6798809Y-8682200D01*
X6798809Y-8682200D02*
X6751190Y-8634580D01*
X6751190Y-8634580D02*
X6703571Y-8539342D01*
X6703571Y-8539342D02*
X6703571Y-8253628D01*
X6703571Y-8253628D02*
X6751190Y-8158390D01*
X6751190Y-8158390D02*
X6798809Y-8110771D01*
X6798809Y-8110771D02*
X6894047Y-8063152D01*
X6894047Y-8063152D02*
X7036904Y-8063152D01*
X7036904Y-8063152D02*
X7132142Y-8110771D01*
X7132142Y-8110771D02*
X7179761Y-8158390D01*
X7179761Y-8158390D02*
X7227380Y-8253628D01*
X7227380Y-8253628D02*
X7227380Y-8539342D01*
X7227380Y-8539342D02*
X7179761Y-8634580D01*
X7179761Y-8634580D02*
X7132142Y-8682200D01*
X7132142Y-8682200D02*
X7036904Y-8729819D01*
X7036904Y-8729819D02*
X6894047Y-8729819D01*
X7798809Y-8729819D02*
X7703571Y-8682200D01*
X7703571Y-8682200D02*
X7655952Y-8586961D01*
X7655952Y-8586961D02*
X7655952Y-7729819D01*
X8560714Y-8682200D02*
X8465476Y-8729819D01*
X8465476Y-8729819D02*
X8275000Y-8729819D01*
X8275000Y-8729819D02*
X8179762Y-8682200D01*
X8179762Y-8682200D02*
X8132143Y-8586961D01*
X8132143Y-8586961D02*
X8132143Y-8206009D01*
X8132143Y-8206009D02*
X8179762Y-8110771D01*
X8179762Y-8110771D02*
X8275000Y-8063152D01*
X8275000Y-8063152D02*
X8465476Y-8063152D01*
X8465476Y-8063152D02*
X8560714Y-8110771D01*
X8560714Y-8110771D02*
X8608333Y-8206009D01*
X8608333Y-8206009D02*
X8608333Y-8301247D01*
X8608333Y-8301247D02*
X8132143Y-8396485D01*
X3013095Y-4229819D02*
X3013095Y-3229819D01*
X3013095Y-3706009D02*
X3584523Y-3706009D01*
X3584523Y-4229819D02*
X3584523Y-3229819D01*
X4584523Y-4229819D02*
X4013095Y-4229819D01*
X4298809Y-4229819D02*
X4298809Y-3229819D01*
X4298809Y-3229819D02*
X4203571Y-3372676D01*
X4203571Y-3372676D02*
X4108333Y-3467914D01*
X4108333Y-3467914D02*
X4013095Y-3515533D01*
X190418819Y-62078856D02*
X190418819Y-61412190D01*
X190418819Y-61412190D02*
X191418819Y-61840761D01*
X190752152Y-60602666D02*
X191418819Y-60602666D01*
X190371200Y-60840761D02*
X191085485Y-61078856D01*
X191085485Y-61078856D02*
X191085485Y-60459809D01*
X191418819Y-59602666D02*
X191418819Y-60078856D01*
X191418819Y-60078856D02*
X190418819Y-60078856D01*
X191371200Y-59316951D02*
X191418819Y-59174094D01*
X191418819Y-59174094D02*
X191418819Y-58935999D01*
X191418819Y-58935999D02*
X191371200Y-58840761D01*
X191371200Y-58840761D02*
X191323580Y-58793142D01*
X191323580Y-58793142D02*
X191228342Y-58745523D01*
X191228342Y-58745523D02*
X191133104Y-58745523D01*
X191133104Y-58745523D02*
X191037866Y-58793142D01*
X191037866Y-58793142D02*
X190990247Y-58840761D01*
X190990247Y-58840761D02*
X190942628Y-58935999D01*
X190942628Y-58935999D02*
X190895009Y-59126475D01*
X190895009Y-59126475D02*
X190847390Y-59221713D01*
X190847390Y-59221713D02*
X190799771Y-59269332D01*
X190799771Y-59269332D02*
X190704533Y-59316951D01*
X190704533Y-59316951D02*
X190609295Y-59316951D01*
X190609295Y-59316951D02*
X190514057Y-59269332D01*
X190514057Y-59269332D02*
X190466438Y-59221713D01*
X190466438Y-59221713D02*
X190418819Y-59126475D01*
X190418819Y-59126475D02*
X190418819Y-58888380D01*
X190418819Y-58888380D02*
X190466438Y-58745523D01*
X191418819Y-57793142D02*
X191418819Y-58364570D01*
X191418819Y-58078856D02*
X190418819Y-58078856D01*
X190418819Y-58078856D02*
X190561676Y-58174094D01*
X190561676Y-58174094D02*
X190656914Y-58269332D01*
X190656914Y-58269332D02*
X190704533Y-58364570D01*
X190752152Y-56935999D02*
X191418819Y-56935999D01*
X190371200Y-57174094D02*
X191085485Y-57412189D01*
X191085485Y-57412189D02*
X191085485Y-56793142D01*
X200368819Y-60197904D02*
X201178342Y-60197904D01*
X201178342Y-60197904D02*
X201273580Y-60150285D01*
X201273580Y-60150285D02*
X201321200Y-60102666D01*
X201321200Y-60102666D02*
X201368819Y-60007428D01*
X201368819Y-60007428D02*
X201368819Y-59816952D01*
X201368819Y-59816952D02*
X201321200Y-59721714D01*
X201321200Y-59721714D02*
X201273580Y-59674095D01*
X201273580Y-59674095D02*
X201178342Y-59626476D01*
X201178342Y-59626476D02*
X200368819Y-59626476D01*
X200368819Y-59245523D02*
X200368819Y-58626476D01*
X200368819Y-58626476D02*
X200749771Y-58959809D01*
X200749771Y-58959809D02*
X200749771Y-58816952D01*
X200749771Y-58816952D02*
X200797390Y-58721714D01*
X200797390Y-58721714D02*
X200845009Y-58674095D01*
X200845009Y-58674095D02*
X200940247Y-58626476D01*
X200940247Y-58626476D02*
X201178342Y-58626476D01*
X201178342Y-58626476D02*
X201273580Y-58674095D01*
X201273580Y-58674095D02*
X201321200Y-58721714D01*
X201321200Y-58721714D02*
X201368819Y-58816952D01*
X201368819Y-58816952D02*
X201368819Y-59102666D01*
X201368819Y-59102666D02*
X201321200Y-59197904D01*
X201321200Y-59197904D02*
X201273580Y-59245523D01*
X221406819Y-117355904D02*
X220406819Y-117355904D01*
X221406819Y-116784476D02*
X220835390Y-117213047D01*
X220406819Y-116784476D02*
X220978247Y-117355904D01*
D12*
X227871664Y-57410285D02*
X227909760Y-57448381D01*
X227909760Y-57448381D02*
X227947855Y-57562666D01*
X227947855Y-57562666D02*
X227947855Y-57638857D01*
X227947855Y-57638857D02*
X227909760Y-57753143D01*
X227909760Y-57753143D02*
X227833569Y-57829333D01*
X227833569Y-57829333D02*
X227757379Y-57867428D01*
X227757379Y-57867428D02*
X227604998Y-57905524D01*
X227604998Y-57905524D02*
X227490712Y-57905524D01*
X227490712Y-57905524D02*
X227338331Y-57867428D01*
X227338331Y-57867428D02*
X227262140Y-57829333D01*
X227262140Y-57829333D02*
X227185950Y-57753143D01*
X227185950Y-57753143D02*
X227147855Y-57638857D01*
X227147855Y-57638857D02*
X227147855Y-57562666D01*
X227147855Y-57562666D02*
X227185950Y-57448381D01*
X227185950Y-57448381D02*
X227224045Y-57410285D01*
X227947855Y-56648381D02*
X227947855Y-57105524D01*
X227947855Y-56876952D02*
X227147855Y-56876952D01*
X227147855Y-56876952D02*
X227262140Y-56953143D01*
X227262140Y-56953143D02*
X227338331Y-57029333D01*
X227338331Y-57029333D02*
X227376426Y-57105524D01*
X227224045Y-56343619D02*
X227185950Y-56305523D01*
X227185950Y-56305523D02*
X227147855Y-56229333D01*
X227147855Y-56229333D02*
X227147855Y-56038857D01*
X227147855Y-56038857D02*
X227185950Y-55962666D01*
X227185950Y-55962666D02*
X227224045Y-55924571D01*
X227224045Y-55924571D02*
X227300236Y-55886476D01*
X227300236Y-55886476D02*
X227376426Y-55886476D01*
X227376426Y-55886476D02*
X227490712Y-55924571D01*
X227490712Y-55924571D02*
X227947855Y-56381714D01*
X227947855Y-56381714D02*
X227947855Y-55886476D01*
D10*
X181385819Y-141152094D02*
X180385819Y-141152094D01*
X180385819Y-141152094D02*
X180385819Y-140913999D01*
X180385819Y-140913999D02*
X180433438Y-140771142D01*
X180433438Y-140771142D02*
X180528676Y-140675904D01*
X180528676Y-140675904D02*
X180623914Y-140628285D01*
X180623914Y-140628285D02*
X180814390Y-140580666D01*
X180814390Y-140580666D02*
X180957247Y-140580666D01*
X180957247Y-140580666D02*
X181147723Y-140628285D01*
X181147723Y-140628285D02*
X181242961Y-140675904D01*
X181242961Y-140675904D02*
X181338200Y-140771142D01*
X181338200Y-140771142D02*
X181385819Y-140913999D01*
X181385819Y-140913999D02*
X181385819Y-141152094D01*
X181100104Y-140199713D02*
X181100104Y-139723523D01*
X181385819Y-140294951D02*
X180385819Y-139961618D01*
X180385819Y-139961618D02*
X181385819Y-139628285D01*
X181290580Y-138723523D02*
X181338200Y-138771142D01*
X181338200Y-138771142D02*
X181385819Y-138913999D01*
X181385819Y-138913999D02*
X181385819Y-139009237D01*
X181385819Y-139009237D02*
X181338200Y-139152094D01*
X181338200Y-139152094D02*
X181242961Y-139247332D01*
X181242961Y-139247332D02*
X181147723Y-139294951D01*
X181147723Y-139294951D02*
X180957247Y-139342570D01*
X180957247Y-139342570D02*
X180814390Y-139342570D01*
X180814390Y-139342570D02*
X180623914Y-139294951D01*
X180623914Y-139294951D02*
X180528676Y-139247332D01*
X180528676Y-139247332D02*
X180433438Y-139152094D01*
X180433438Y-139152094D02*
X180385819Y-139009237D01*
X180385819Y-139009237D02*
X180385819Y-138913999D01*
X180385819Y-138913999D02*
X180433438Y-138771142D01*
X180433438Y-138771142D02*
X180481057Y-138723523D01*
X181385819Y-138294951D02*
X180385819Y-138294951D01*
X181385819Y-137723523D02*
X180814390Y-138152094D01*
X180385819Y-137723523D02*
X180957247Y-138294951D01*
X180338200Y-136580666D02*
X181623914Y-137437808D01*
X181385819Y-136247332D02*
X180385819Y-136247332D01*
X180385819Y-136247332D02*
X180385819Y-136009237D01*
X180385819Y-136009237D02*
X180433438Y-135866380D01*
X180433438Y-135866380D02*
X180528676Y-135771142D01*
X180528676Y-135771142D02*
X180623914Y-135723523D01*
X180623914Y-135723523D02*
X180814390Y-135675904D01*
X180814390Y-135675904D02*
X180957247Y-135675904D01*
X180957247Y-135675904D02*
X181147723Y-135723523D01*
X181147723Y-135723523D02*
X181242961Y-135771142D01*
X181242961Y-135771142D02*
X181338200Y-135866380D01*
X181338200Y-135866380D02*
X181385819Y-136009237D01*
X181385819Y-136009237D02*
X181385819Y-136247332D01*
X181385819Y-134675904D02*
X180909628Y-135009237D01*
X181385819Y-135247332D02*
X180385819Y-135247332D01*
X180385819Y-135247332D02*
X180385819Y-134866380D01*
X180385819Y-134866380D02*
X180433438Y-134771142D01*
X180433438Y-134771142D02*
X180481057Y-134723523D01*
X180481057Y-134723523D02*
X180576295Y-134675904D01*
X180576295Y-134675904D02*
X180719152Y-134675904D01*
X180719152Y-134675904D02*
X180814390Y-134723523D01*
X180814390Y-134723523D02*
X180862009Y-134771142D01*
X180862009Y-134771142D02*
X180909628Y-134866380D01*
X180909628Y-134866380D02*
X180909628Y-135247332D01*
X181481057Y-133580666D02*
X181433438Y-133675904D01*
X181433438Y-133675904D02*
X181338200Y-133771142D01*
X181338200Y-133771142D02*
X181195342Y-133913999D01*
X181195342Y-133913999D02*
X181147723Y-134009237D01*
X181147723Y-134009237D02*
X181147723Y-134104475D01*
X181385819Y-134056856D02*
X181338200Y-134152094D01*
X181338200Y-134152094D02*
X181242961Y-134247332D01*
X181242961Y-134247332D02*
X181052485Y-134294951D01*
X181052485Y-134294951D02*
X180719152Y-134294951D01*
X180719152Y-134294951D02*
X180528676Y-134247332D01*
X180528676Y-134247332D02*
X180433438Y-134152094D01*
X180433438Y-134152094D02*
X180385819Y-134056856D01*
X180385819Y-134056856D02*
X180385819Y-133866380D01*
X180385819Y-133866380D02*
X180433438Y-133771142D01*
X180433438Y-133771142D02*
X180528676Y-133675904D01*
X180528676Y-133675904D02*
X180719152Y-133628285D01*
X180719152Y-133628285D02*
X181052485Y-133628285D01*
X181052485Y-133628285D02*
X181242961Y-133675904D01*
X181242961Y-133675904D02*
X181338200Y-133771142D01*
X181338200Y-133771142D02*
X181385819Y-133866380D01*
X181385819Y-133866380D02*
X181385819Y-134056856D01*
X186737666Y-136868819D02*
X186737666Y-137583104D01*
X186737666Y-137583104D02*
X186690047Y-137725961D01*
X186690047Y-137725961D02*
X186594809Y-137821200D01*
X186594809Y-137821200D02*
X186451952Y-137868819D01*
X186451952Y-137868819D02*
X186356714Y-137868819D01*
X187642428Y-137202152D02*
X187642428Y-137868819D01*
X187404333Y-136821200D02*
X187166238Y-137535485D01*
X187166238Y-137535485D02*
X187785285Y-137535485D01*
X127299819Y-62555047D02*
X127299819Y-61888381D01*
X127299819Y-61888381D02*
X128299819Y-62316952D01*
X127633152Y-61078857D02*
X128299819Y-61078857D01*
X127252200Y-61316952D02*
X127966485Y-61555047D01*
X127966485Y-61555047D02*
X127966485Y-60936000D01*
X128299819Y-60078857D02*
X128299819Y-60555047D01*
X128299819Y-60555047D02*
X127299819Y-60555047D01*
X128252200Y-59793142D02*
X128299819Y-59650285D01*
X128299819Y-59650285D02*
X128299819Y-59412190D01*
X128299819Y-59412190D02*
X128252200Y-59316952D01*
X128252200Y-59316952D02*
X128204580Y-59269333D01*
X128204580Y-59269333D02*
X128109342Y-59221714D01*
X128109342Y-59221714D02*
X128014104Y-59221714D01*
X128014104Y-59221714D02*
X127918866Y-59269333D01*
X127918866Y-59269333D02*
X127871247Y-59316952D01*
X127871247Y-59316952D02*
X127823628Y-59412190D01*
X127823628Y-59412190D02*
X127776009Y-59602666D01*
X127776009Y-59602666D02*
X127728390Y-59697904D01*
X127728390Y-59697904D02*
X127680771Y-59745523D01*
X127680771Y-59745523D02*
X127585533Y-59793142D01*
X127585533Y-59793142D02*
X127490295Y-59793142D01*
X127490295Y-59793142D02*
X127395057Y-59745523D01*
X127395057Y-59745523D02*
X127347438Y-59697904D01*
X127347438Y-59697904D02*
X127299819Y-59602666D01*
X127299819Y-59602666D02*
X127299819Y-59364571D01*
X127299819Y-59364571D02*
X127347438Y-59221714D01*
X128299819Y-58269333D02*
X128299819Y-58840761D01*
X128299819Y-58555047D02*
X127299819Y-58555047D01*
X127299819Y-58555047D02*
X127442676Y-58650285D01*
X127442676Y-58650285D02*
X127537914Y-58745523D01*
X127537914Y-58745523D02*
X127585533Y-58840761D01*
X127299819Y-57935999D02*
X127299819Y-57269333D01*
X127299819Y-57269333D02*
X128299819Y-57697904D01*
X127299819Y-56412190D02*
X127299819Y-56888380D01*
X127299819Y-56888380D02*
X127776009Y-56935999D01*
X127776009Y-56935999D02*
X127728390Y-56888380D01*
X127728390Y-56888380D02*
X127680771Y-56793142D01*
X127680771Y-56793142D02*
X127680771Y-56555047D01*
X127680771Y-56555047D02*
X127728390Y-56459809D01*
X127728390Y-56459809D02*
X127776009Y-56412190D01*
X127776009Y-56412190D02*
X127871247Y-56364571D01*
X127871247Y-56364571D02*
X128109342Y-56364571D01*
X128109342Y-56364571D02*
X128204580Y-56412190D01*
X128204580Y-56412190D02*
X128252200Y-56459809D01*
X128252200Y-56459809D02*
X128299819Y-56555047D01*
X128299819Y-56555047D02*
X128299819Y-56793142D01*
X128299819Y-56793142D02*
X128252200Y-56888380D01*
X128252200Y-56888380D02*
X128204580Y-56935999D01*
X138519819Y-60197904D02*
X139329342Y-60197904D01*
X139329342Y-60197904D02*
X139424580Y-60150285D01*
X139424580Y-60150285D02*
X139472200Y-60102666D01*
X139472200Y-60102666D02*
X139519819Y-60007428D01*
X139519819Y-60007428D02*
X139519819Y-59816952D01*
X139519819Y-59816952D02*
X139472200Y-59721714D01*
X139472200Y-59721714D02*
X139424580Y-59674095D01*
X139424580Y-59674095D02*
X139329342Y-59626476D01*
X139329342Y-59626476D02*
X138519819Y-59626476D01*
X139519819Y-58626476D02*
X139519819Y-59197904D01*
X139519819Y-58912190D02*
X138519819Y-58912190D01*
X138519819Y-58912190D02*
X138662676Y-59007428D01*
X138662676Y-59007428D02*
X138757914Y-59102666D01*
X138757914Y-59102666D02*
X138805533Y-59197904D01*
X153775580Y-59896666D02*
X153823200Y-59944285D01*
X153823200Y-59944285D02*
X153870819Y-60087142D01*
X153870819Y-60087142D02*
X153870819Y-60182380D01*
X153870819Y-60182380D02*
X153823200Y-60325237D01*
X153823200Y-60325237D02*
X153727961Y-60420475D01*
X153727961Y-60420475D02*
X153632723Y-60468094D01*
X153632723Y-60468094D02*
X153442247Y-60515713D01*
X153442247Y-60515713D02*
X153299390Y-60515713D01*
X153299390Y-60515713D02*
X153108914Y-60468094D01*
X153108914Y-60468094D02*
X153013676Y-60420475D01*
X153013676Y-60420475D02*
X152918438Y-60325237D01*
X152918438Y-60325237D02*
X152870819Y-60182380D01*
X152870819Y-60182380D02*
X152870819Y-60087142D01*
X152870819Y-60087142D02*
X152918438Y-59944285D01*
X152918438Y-59944285D02*
X152966057Y-59896666D01*
X153870819Y-58944285D02*
X153870819Y-59515713D01*
X153870819Y-59229999D02*
X152870819Y-59229999D01*
X152870819Y-59229999D02*
X153013676Y-59325237D01*
X153013676Y-59325237D02*
X153108914Y-59420475D01*
X153108914Y-59420475D02*
X153156533Y-59515713D01*
X150749333Y-117707580D02*
X150701714Y-117755200D01*
X150701714Y-117755200D02*
X150558857Y-117802819D01*
X150558857Y-117802819D02*
X150463619Y-117802819D01*
X150463619Y-117802819D02*
X150320762Y-117755200D01*
X150320762Y-117755200D02*
X150225524Y-117659961D01*
X150225524Y-117659961D02*
X150177905Y-117564723D01*
X150177905Y-117564723D02*
X150130286Y-117374247D01*
X150130286Y-117374247D02*
X150130286Y-117231390D01*
X150130286Y-117231390D02*
X150177905Y-117040914D01*
X150177905Y-117040914D02*
X150225524Y-116945676D01*
X150225524Y-116945676D02*
X150320762Y-116850438D01*
X150320762Y-116850438D02*
X150463619Y-116802819D01*
X150463619Y-116802819D02*
X150558857Y-116802819D01*
X150558857Y-116802819D02*
X150701714Y-116850438D01*
X150701714Y-116850438D02*
X150749333Y-116898057D01*
X151225524Y-117802819D02*
X151416000Y-117802819D01*
X151416000Y-117802819D02*
X151511238Y-117755200D01*
X151511238Y-117755200D02*
X151558857Y-117707580D01*
X151558857Y-117707580D02*
X151654095Y-117564723D01*
X151654095Y-117564723D02*
X151701714Y-117374247D01*
X151701714Y-117374247D02*
X151701714Y-116993295D01*
X151701714Y-116993295D02*
X151654095Y-116898057D01*
X151654095Y-116898057D02*
X151606476Y-116850438D01*
X151606476Y-116850438D02*
X151511238Y-116802819D01*
X151511238Y-116802819D02*
X151320762Y-116802819D01*
X151320762Y-116802819D02*
X151225524Y-116850438D01*
X151225524Y-116850438D02*
X151177905Y-116898057D01*
X151177905Y-116898057D02*
X151130286Y-116993295D01*
X151130286Y-116993295D02*
X151130286Y-117231390D01*
X151130286Y-117231390D02*
X151177905Y-117326628D01*
X151177905Y-117326628D02*
X151225524Y-117374247D01*
X151225524Y-117374247D02*
X151320762Y-117421866D01*
X151320762Y-117421866D02*
X151511238Y-117421866D01*
X151511238Y-117421866D02*
X151606476Y-117374247D01*
X151606476Y-117374247D02*
X151654095Y-117326628D01*
X151654095Y-117326628D02*
X151701714Y-117231390D01*
X150273142Y-133709580D02*
X150225523Y-133757200D01*
X150225523Y-133757200D02*
X150082666Y-133804819D01*
X150082666Y-133804819D02*
X149987428Y-133804819D01*
X149987428Y-133804819D02*
X149844571Y-133757200D01*
X149844571Y-133757200D02*
X149749333Y-133661961D01*
X149749333Y-133661961D02*
X149701714Y-133566723D01*
X149701714Y-133566723D02*
X149654095Y-133376247D01*
X149654095Y-133376247D02*
X149654095Y-133233390D01*
X149654095Y-133233390D02*
X149701714Y-133042914D01*
X149701714Y-133042914D02*
X149749333Y-132947676D01*
X149749333Y-132947676D02*
X149844571Y-132852438D01*
X149844571Y-132852438D02*
X149987428Y-132804819D01*
X149987428Y-132804819D02*
X150082666Y-132804819D01*
X150082666Y-132804819D02*
X150225523Y-132852438D01*
X150225523Y-132852438D02*
X150273142Y-132900057D01*
X151225523Y-133804819D02*
X150654095Y-133804819D01*
X150939809Y-133804819D02*
X150939809Y-132804819D01*
X150939809Y-132804819D02*
X150844571Y-132947676D01*
X150844571Y-132947676D02*
X150749333Y-133042914D01*
X150749333Y-133042914D02*
X150654095Y-133090533D01*
X151844571Y-132804819D02*
X151939809Y-132804819D01*
X151939809Y-132804819D02*
X152035047Y-132852438D01*
X152035047Y-132852438D02*
X152082666Y-132900057D01*
X152082666Y-132900057D02*
X152130285Y-132995295D01*
X152130285Y-132995295D02*
X152177904Y-133185771D01*
X152177904Y-133185771D02*
X152177904Y-133423866D01*
X152177904Y-133423866D02*
X152130285Y-133614342D01*
X152130285Y-133614342D02*
X152082666Y-133709580D01*
X152082666Y-133709580D02*
X152035047Y-133757200D01*
X152035047Y-133757200D02*
X151939809Y-133804819D01*
X151939809Y-133804819D02*
X151844571Y-133804819D01*
X151844571Y-133804819D02*
X151749333Y-133757200D01*
X151749333Y-133757200D02*
X151701714Y-133709580D01*
X151701714Y-133709580D02*
X151654095Y-133614342D01*
X151654095Y-133614342D02*
X151606476Y-133423866D01*
X151606476Y-133423866D02*
X151606476Y-133185771D01*
X151606476Y-133185771D02*
X151654095Y-132995295D01*
X151654095Y-132995295D02*
X151701714Y-132900057D01*
X151701714Y-132900057D02*
X151749333Y-132852438D01*
X151749333Y-132852438D02*
X151844571Y-132804819D01*
X160192819Y-79922476D02*
X160192819Y-80398666D01*
X160192819Y-80398666D02*
X160669009Y-80446285D01*
X160669009Y-80446285D02*
X160621390Y-80398666D01*
X160621390Y-80398666D02*
X160573771Y-80303428D01*
X160573771Y-80303428D02*
X160573771Y-80065333D01*
X160573771Y-80065333D02*
X160621390Y-79970095D01*
X160621390Y-79970095D02*
X160669009Y-79922476D01*
X160669009Y-79922476D02*
X160764247Y-79874857D01*
X160764247Y-79874857D02*
X161002342Y-79874857D01*
X161002342Y-79874857D02*
X161097580Y-79922476D01*
X161097580Y-79922476D02*
X161145200Y-79970095D01*
X161145200Y-79970095D02*
X161192819Y-80065333D01*
X161192819Y-80065333D02*
X161192819Y-80303428D01*
X161192819Y-80303428D02*
X161145200Y-80398666D01*
X161145200Y-80398666D02*
X161097580Y-80446285D01*
X160192819Y-79541523D02*
X160192819Y-78922476D01*
X160192819Y-78922476D02*
X160573771Y-79255809D01*
X160573771Y-79255809D02*
X160573771Y-79112952D01*
X160573771Y-79112952D02*
X160621390Y-79017714D01*
X160621390Y-79017714D02*
X160669009Y-78970095D01*
X160669009Y-78970095D02*
X160764247Y-78922476D01*
X160764247Y-78922476D02*
X161002342Y-78922476D01*
X161002342Y-78922476D02*
X161097580Y-78970095D01*
X161097580Y-78970095D02*
X161145200Y-79017714D01*
X161145200Y-79017714D02*
X161192819Y-79112952D01*
X161192819Y-79112952D02*
X161192819Y-79398666D01*
X161192819Y-79398666D02*
X161145200Y-79493904D01*
X161145200Y-79493904D02*
X161097580Y-79541523D01*
X161097580Y-77922476D02*
X161145200Y-77970095D01*
X161145200Y-77970095D02*
X161192819Y-78112952D01*
X161192819Y-78112952D02*
X161192819Y-78208190D01*
X161192819Y-78208190D02*
X161145200Y-78351047D01*
X161145200Y-78351047D02*
X161049961Y-78446285D01*
X161049961Y-78446285D02*
X160954723Y-78493904D01*
X160954723Y-78493904D02*
X160764247Y-78541523D01*
X160764247Y-78541523D02*
X160621390Y-78541523D01*
X160621390Y-78541523D02*
X160430914Y-78493904D01*
X160430914Y-78493904D02*
X160335676Y-78446285D01*
X160335676Y-78446285D02*
X160240438Y-78351047D01*
X160240438Y-78351047D02*
X160192819Y-78208190D01*
X160192819Y-78208190D02*
X160192819Y-78112952D01*
X160192819Y-78112952D02*
X160240438Y-77970095D01*
X160240438Y-77970095D02*
X160288057Y-77922476D01*
X160621390Y-77351047D02*
X160573771Y-77446285D01*
X160573771Y-77446285D02*
X160526152Y-77493904D01*
X160526152Y-77493904D02*
X160430914Y-77541523D01*
X160430914Y-77541523D02*
X160383295Y-77541523D01*
X160383295Y-77541523D02*
X160288057Y-77493904D01*
X160288057Y-77493904D02*
X160240438Y-77446285D01*
X160240438Y-77446285D02*
X160192819Y-77351047D01*
X160192819Y-77351047D02*
X160192819Y-77160571D01*
X160192819Y-77160571D02*
X160240438Y-77065333D01*
X160240438Y-77065333D02*
X160288057Y-77017714D01*
X160288057Y-77017714D02*
X160383295Y-76970095D01*
X160383295Y-76970095D02*
X160430914Y-76970095D01*
X160430914Y-76970095D02*
X160526152Y-77017714D01*
X160526152Y-77017714D02*
X160573771Y-77065333D01*
X160573771Y-77065333D02*
X160621390Y-77160571D01*
X160621390Y-77160571D02*
X160621390Y-77351047D01*
X160621390Y-77351047D02*
X160669009Y-77446285D01*
X160669009Y-77446285D02*
X160716628Y-77493904D01*
X160716628Y-77493904D02*
X160811866Y-77541523D01*
X160811866Y-77541523D02*
X161002342Y-77541523D01*
X161002342Y-77541523D02*
X161097580Y-77493904D01*
X161097580Y-77493904D02*
X161145200Y-77446285D01*
X161145200Y-77446285D02*
X161192819Y-77351047D01*
X161192819Y-77351047D02*
X161192819Y-77160571D01*
X161192819Y-77160571D02*
X161145200Y-77065333D01*
X161145200Y-77065333D02*
X161097580Y-77017714D01*
X161097580Y-77017714D02*
X161002342Y-76970095D01*
X161002342Y-76970095D02*
X160811866Y-76970095D01*
X160811866Y-76970095D02*
X160716628Y-77017714D01*
X160716628Y-77017714D02*
X160669009Y-77065333D01*
X160669009Y-77065333D02*
X160621390Y-77160571D01*
X160192819Y-76351047D02*
X160192819Y-76255809D01*
X160192819Y-76255809D02*
X160240438Y-76160571D01*
X160240438Y-76160571D02*
X160288057Y-76112952D01*
X160288057Y-76112952D02*
X160383295Y-76065333D01*
X160383295Y-76065333D02*
X160573771Y-76017714D01*
X160573771Y-76017714D02*
X160811866Y-76017714D01*
X160811866Y-76017714D02*
X161002342Y-76065333D01*
X161002342Y-76065333D02*
X161097580Y-76112952D01*
X161097580Y-76112952D02*
X161145200Y-76160571D01*
X161145200Y-76160571D02*
X161192819Y-76255809D01*
X161192819Y-76255809D02*
X161192819Y-76351047D01*
X161192819Y-76351047D02*
X161145200Y-76446285D01*
X161145200Y-76446285D02*
X161097580Y-76493904D01*
X161097580Y-76493904D02*
X161002342Y-76541523D01*
X161002342Y-76541523D02*
X160811866Y-76589142D01*
X160811866Y-76589142D02*
X160573771Y-76589142D01*
X160573771Y-76589142D02*
X160383295Y-76541523D01*
X160383295Y-76541523D02*
X160288057Y-76493904D01*
X160288057Y-76493904D02*
X160240438Y-76446285D01*
X160240438Y-76446285D02*
X160192819Y-76351047D01*
X186652819Y-78993904D02*
X187462342Y-78993904D01*
X187462342Y-78993904D02*
X187557580Y-78946285D01*
X187557580Y-78946285D02*
X187605200Y-78898666D01*
X187605200Y-78898666D02*
X187652819Y-78803428D01*
X187652819Y-78803428D02*
X187652819Y-78612952D01*
X187652819Y-78612952D02*
X187605200Y-78517714D01*
X187605200Y-78517714D02*
X187557580Y-78470095D01*
X187557580Y-78470095D02*
X187462342Y-78422476D01*
X187462342Y-78422476D02*
X186652819Y-78422476D01*
X186652819Y-77470095D02*
X186652819Y-77946285D01*
X186652819Y-77946285D02*
X187129009Y-77993904D01*
X187129009Y-77993904D02*
X187081390Y-77946285D01*
X187081390Y-77946285D02*
X187033771Y-77851047D01*
X187033771Y-77851047D02*
X187033771Y-77612952D01*
X187033771Y-77612952D02*
X187081390Y-77517714D01*
X187081390Y-77517714D02*
X187129009Y-77470095D01*
X187129009Y-77470095D02*
X187224247Y-77422476D01*
X187224247Y-77422476D02*
X187462342Y-77422476D01*
X187462342Y-77422476D02*
X187557580Y-77470095D01*
X187557580Y-77470095D02*
X187605200Y-77517714D01*
X187605200Y-77517714D02*
X187652819Y-77612952D01*
X187652819Y-77612952D02*
X187652819Y-77851047D01*
X187652819Y-77851047D02*
X187605200Y-77946285D01*
X187605200Y-77946285D02*
X187557580Y-77993904D01*
X160192819Y-62555047D02*
X160192819Y-61888381D01*
X160192819Y-61888381D02*
X161192819Y-62316952D01*
X160526152Y-61078857D02*
X161192819Y-61078857D01*
X160145200Y-61316952D02*
X160859485Y-61555047D01*
X160859485Y-61555047D02*
X160859485Y-60936000D01*
X161192819Y-60078857D02*
X161192819Y-60555047D01*
X161192819Y-60555047D02*
X160192819Y-60555047D01*
X161145200Y-59793142D02*
X161192819Y-59650285D01*
X161192819Y-59650285D02*
X161192819Y-59412190D01*
X161192819Y-59412190D02*
X161145200Y-59316952D01*
X161145200Y-59316952D02*
X161097580Y-59269333D01*
X161097580Y-59269333D02*
X161002342Y-59221714D01*
X161002342Y-59221714D02*
X160907104Y-59221714D01*
X160907104Y-59221714D02*
X160811866Y-59269333D01*
X160811866Y-59269333D02*
X160764247Y-59316952D01*
X160764247Y-59316952D02*
X160716628Y-59412190D01*
X160716628Y-59412190D02*
X160669009Y-59602666D01*
X160669009Y-59602666D02*
X160621390Y-59697904D01*
X160621390Y-59697904D02*
X160573771Y-59745523D01*
X160573771Y-59745523D02*
X160478533Y-59793142D01*
X160478533Y-59793142D02*
X160383295Y-59793142D01*
X160383295Y-59793142D02*
X160288057Y-59745523D01*
X160288057Y-59745523D02*
X160240438Y-59697904D01*
X160240438Y-59697904D02*
X160192819Y-59602666D01*
X160192819Y-59602666D02*
X160192819Y-59364571D01*
X160192819Y-59364571D02*
X160240438Y-59221714D01*
X161192819Y-58269333D02*
X161192819Y-58840761D01*
X161192819Y-58555047D02*
X160192819Y-58555047D01*
X160192819Y-58555047D02*
X160335676Y-58650285D01*
X160335676Y-58650285D02*
X160430914Y-58745523D01*
X160430914Y-58745523D02*
X160478533Y-58840761D01*
X160288057Y-57888380D02*
X160240438Y-57840761D01*
X160240438Y-57840761D02*
X160192819Y-57745523D01*
X160192819Y-57745523D02*
X160192819Y-57507428D01*
X160192819Y-57507428D02*
X160240438Y-57412190D01*
X160240438Y-57412190D02*
X160288057Y-57364571D01*
X160288057Y-57364571D02*
X160383295Y-57316952D01*
X160383295Y-57316952D02*
X160478533Y-57316952D01*
X160478533Y-57316952D02*
X160621390Y-57364571D01*
X160621390Y-57364571D02*
X161192819Y-57935999D01*
X161192819Y-57935999D02*
X161192819Y-57316952D01*
X160192819Y-56412190D02*
X160192819Y-56888380D01*
X160192819Y-56888380D02*
X160669009Y-56935999D01*
X160669009Y-56935999D02*
X160621390Y-56888380D01*
X160621390Y-56888380D02*
X160573771Y-56793142D01*
X160573771Y-56793142D02*
X160573771Y-56555047D01*
X160573771Y-56555047D02*
X160621390Y-56459809D01*
X160621390Y-56459809D02*
X160669009Y-56412190D01*
X160669009Y-56412190D02*
X160764247Y-56364571D01*
X160764247Y-56364571D02*
X161002342Y-56364571D01*
X161002342Y-56364571D02*
X161097580Y-56412190D01*
X161097580Y-56412190D02*
X161145200Y-56459809D01*
X161145200Y-56459809D02*
X161192819Y-56555047D01*
X161192819Y-56555047D02*
X161192819Y-56793142D01*
X161192819Y-56793142D02*
X161145200Y-56888380D01*
X161145200Y-56888380D02*
X161097580Y-56935999D01*
X170142819Y-60197904D02*
X170952342Y-60197904D01*
X170952342Y-60197904D02*
X171047580Y-60150285D01*
X171047580Y-60150285D02*
X171095200Y-60102666D01*
X171095200Y-60102666D02*
X171142819Y-60007428D01*
X171142819Y-60007428D02*
X171142819Y-59816952D01*
X171142819Y-59816952D02*
X171095200Y-59721714D01*
X171095200Y-59721714D02*
X171047580Y-59674095D01*
X171047580Y-59674095D02*
X170952342Y-59626476D01*
X170952342Y-59626476D02*
X170142819Y-59626476D01*
X170238057Y-59197904D02*
X170190438Y-59150285D01*
X170190438Y-59150285D02*
X170142819Y-59055047D01*
X170142819Y-59055047D02*
X170142819Y-58816952D01*
X170142819Y-58816952D02*
X170190438Y-58721714D01*
X170190438Y-58721714D02*
X170238057Y-58674095D01*
X170238057Y-58674095D02*
X170333295Y-58626476D01*
X170333295Y-58626476D02*
X170428533Y-58626476D01*
X170428533Y-58626476D02*
X170571390Y-58674095D01*
X170571390Y-58674095D02*
X171142819Y-59245523D01*
X171142819Y-59245523D02*
X171142819Y-58626476D01*
X117139819Y-77184095D02*
X117139819Y-77374571D01*
X117139819Y-77374571D02*
X117187438Y-77469809D01*
X117187438Y-77469809D02*
X117235057Y-77517428D01*
X117235057Y-77517428D02*
X117377914Y-77612666D01*
X117377914Y-77612666D02*
X117568390Y-77660285D01*
X117568390Y-77660285D02*
X117949342Y-77660285D01*
X117949342Y-77660285D02*
X118044580Y-77612666D01*
X118044580Y-77612666D02*
X118092200Y-77565047D01*
X118092200Y-77565047D02*
X118139819Y-77469809D01*
X118139819Y-77469809D02*
X118139819Y-77279333D01*
X118139819Y-77279333D02*
X118092200Y-77184095D01*
X118092200Y-77184095D02*
X118044580Y-77136476D01*
X118044580Y-77136476D02*
X117949342Y-77088857D01*
X117949342Y-77088857D02*
X117711247Y-77088857D01*
X117711247Y-77088857D02*
X117616009Y-77136476D01*
X117616009Y-77136476D02*
X117568390Y-77184095D01*
X117568390Y-77184095D02*
X117520771Y-77279333D01*
X117520771Y-77279333D02*
X117520771Y-77469809D01*
X117520771Y-77469809D02*
X117568390Y-77565047D01*
X117568390Y-77565047D02*
X117616009Y-77612666D01*
X117616009Y-77612666D02*
X117711247Y-77660285D01*
X118139819Y-76136476D02*
X118139819Y-76707904D01*
X118139819Y-76422190D02*
X117139819Y-76422190D01*
X117139819Y-76422190D02*
X117282676Y-76517428D01*
X117282676Y-76517428D02*
X117377914Y-76612666D01*
X117377914Y-76612666D02*
X117425533Y-76707904D01*
X118139819Y-75184095D02*
X118139819Y-75755523D01*
X118139819Y-75469809D02*
X117139819Y-75469809D01*
X117139819Y-75469809D02*
X117282676Y-75565047D01*
X117282676Y-75565047D02*
X117377914Y-75660285D01*
X117377914Y-75660285D02*
X117425533Y-75755523D01*
X117139819Y-74326952D02*
X117139819Y-74517428D01*
X117139819Y-74517428D02*
X117187438Y-74612666D01*
X117187438Y-74612666D02*
X117235057Y-74660285D01*
X117235057Y-74660285D02*
X117377914Y-74755523D01*
X117377914Y-74755523D02*
X117568390Y-74803142D01*
X117568390Y-74803142D02*
X117949342Y-74803142D01*
X117949342Y-74803142D02*
X118044580Y-74755523D01*
X118044580Y-74755523D02*
X118092200Y-74707904D01*
X118092200Y-74707904D02*
X118139819Y-74612666D01*
X118139819Y-74612666D02*
X118139819Y-74422190D01*
X118139819Y-74422190D02*
X118092200Y-74326952D01*
X118092200Y-74326952D02*
X118044580Y-74279333D01*
X118044580Y-74279333D02*
X117949342Y-74231714D01*
X117949342Y-74231714D02*
X117711247Y-74231714D01*
X117711247Y-74231714D02*
X117616009Y-74279333D01*
X117616009Y-74279333D02*
X117568390Y-74326952D01*
X117568390Y-74326952D02*
X117520771Y-74422190D01*
X117520771Y-74422190D02*
X117520771Y-74612666D01*
X117520771Y-74612666D02*
X117568390Y-74707904D01*
X117568390Y-74707904D02*
X117616009Y-74755523D01*
X117616009Y-74755523D02*
X117711247Y-74803142D01*
X145805142Y-138916580D02*
X145757523Y-138964200D01*
X145757523Y-138964200D02*
X145614666Y-139011819D01*
X145614666Y-139011819D02*
X145519428Y-139011819D01*
X145519428Y-139011819D02*
X145376571Y-138964200D01*
X145376571Y-138964200D02*
X145281333Y-138868961D01*
X145281333Y-138868961D02*
X145233714Y-138773723D01*
X145233714Y-138773723D02*
X145186095Y-138583247D01*
X145186095Y-138583247D02*
X145186095Y-138440390D01*
X145186095Y-138440390D02*
X145233714Y-138249914D01*
X145233714Y-138249914D02*
X145281333Y-138154676D01*
X145281333Y-138154676D02*
X145376571Y-138059438D01*
X145376571Y-138059438D02*
X145519428Y-138011819D01*
X145519428Y-138011819D02*
X145614666Y-138011819D01*
X145614666Y-138011819D02*
X145757523Y-138059438D01*
X145757523Y-138059438D02*
X145805142Y-138107057D01*
X146757523Y-139011819D02*
X146186095Y-139011819D01*
X146471809Y-139011819D02*
X146471809Y-138011819D01*
X146471809Y-138011819D02*
X146376571Y-138154676D01*
X146376571Y-138154676D02*
X146281333Y-138249914D01*
X146281333Y-138249914D02*
X146186095Y-138297533D01*
X147709904Y-139011819D02*
X147138476Y-139011819D01*
X147424190Y-139011819D02*
X147424190Y-138011819D01*
X147424190Y-138011819D02*
X147328952Y-138154676D01*
X147328952Y-138154676D02*
X147233714Y-138249914D01*
X147233714Y-138249914D02*
X147138476Y-138297533D01*
X260267200Y-118810476D02*
X260314819Y-118667619D01*
X260314819Y-118667619D02*
X260314819Y-118429524D01*
X260314819Y-118429524D02*
X260267200Y-118334286D01*
X260267200Y-118334286D02*
X260219580Y-118286667D01*
X260219580Y-118286667D02*
X260124342Y-118239048D01*
X260124342Y-118239048D02*
X260029104Y-118239048D01*
X260029104Y-118239048D02*
X259933866Y-118286667D01*
X259933866Y-118286667D02*
X259886247Y-118334286D01*
X259886247Y-118334286D02*
X259838628Y-118429524D01*
X259838628Y-118429524D02*
X259791009Y-118620000D01*
X259791009Y-118620000D02*
X259743390Y-118715238D01*
X259743390Y-118715238D02*
X259695771Y-118762857D01*
X259695771Y-118762857D02*
X259600533Y-118810476D01*
X259600533Y-118810476D02*
X259505295Y-118810476D01*
X259505295Y-118810476D02*
X259410057Y-118762857D01*
X259410057Y-118762857D02*
X259362438Y-118715238D01*
X259362438Y-118715238D02*
X259314819Y-118620000D01*
X259314819Y-118620000D02*
X259314819Y-118381905D01*
X259314819Y-118381905D02*
X259362438Y-118239048D01*
X260219580Y-117239048D02*
X260267200Y-117286667D01*
X260267200Y-117286667D02*
X260314819Y-117429524D01*
X260314819Y-117429524D02*
X260314819Y-117524762D01*
X260314819Y-117524762D02*
X260267200Y-117667619D01*
X260267200Y-117667619D02*
X260171961Y-117762857D01*
X260171961Y-117762857D02*
X260076723Y-117810476D01*
X260076723Y-117810476D02*
X259886247Y-117858095D01*
X259886247Y-117858095D02*
X259743390Y-117858095D01*
X259743390Y-117858095D02*
X259552914Y-117810476D01*
X259552914Y-117810476D02*
X259457676Y-117762857D01*
X259457676Y-117762857D02*
X259362438Y-117667619D01*
X259362438Y-117667619D02*
X259314819Y-117524762D01*
X259314819Y-117524762D02*
X259314819Y-117429524D01*
X259314819Y-117429524D02*
X259362438Y-117286667D01*
X259362438Y-117286667D02*
X259410057Y-117239048D01*
X260267200Y-116858095D02*
X260314819Y-116715238D01*
X260314819Y-116715238D02*
X260314819Y-116477143D01*
X260314819Y-116477143D02*
X260267200Y-116381905D01*
X260267200Y-116381905D02*
X260219580Y-116334286D01*
X260219580Y-116334286D02*
X260124342Y-116286667D01*
X260124342Y-116286667D02*
X260029104Y-116286667D01*
X260029104Y-116286667D02*
X259933866Y-116334286D01*
X259933866Y-116334286D02*
X259886247Y-116381905D01*
X259886247Y-116381905D02*
X259838628Y-116477143D01*
X259838628Y-116477143D02*
X259791009Y-116667619D01*
X259791009Y-116667619D02*
X259743390Y-116762857D01*
X259743390Y-116762857D02*
X259695771Y-116810476D01*
X259695771Y-116810476D02*
X259600533Y-116858095D01*
X259600533Y-116858095D02*
X259505295Y-116858095D01*
X259505295Y-116858095D02*
X259410057Y-116810476D01*
X259410057Y-116810476D02*
X259362438Y-116762857D01*
X259362438Y-116762857D02*
X259314819Y-116667619D01*
X259314819Y-116667619D02*
X259314819Y-116429524D01*
X259314819Y-116429524D02*
X259362438Y-116286667D01*
X260314819Y-115858095D02*
X259314819Y-115858095D01*
X260267200Y-114239048D02*
X260314819Y-114334286D01*
X260314819Y-114334286D02*
X260314819Y-114524762D01*
X260314819Y-114524762D02*
X260267200Y-114620000D01*
X260267200Y-114620000D02*
X260171961Y-114667619D01*
X260171961Y-114667619D02*
X259791009Y-114667619D01*
X259791009Y-114667619D02*
X259695771Y-114620000D01*
X259695771Y-114620000D02*
X259648152Y-114524762D01*
X259648152Y-114524762D02*
X259648152Y-114334286D01*
X259648152Y-114334286D02*
X259695771Y-114239048D01*
X259695771Y-114239048D02*
X259791009Y-114191429D01*
X259791009Y-114191429D02*
X259886247Y-114191429D01*
X259886247Y-114191429D02*
X259981485Y-114667619D01*
X260314819Y-113858095D02*
X259648152Y-113334286D01*
X259648152Y-113858095D02*
X260314819Y-113334286D01*
X259648152Y-113096190D02*
X259648152Y-112715238D01*
X259314819Y-112953333D02*
X260171961Y-112953333D01*
X260171961Y-112953333D02*
X260267200Y-112905714D01*
X260267200Y-112905714D02*
X260314819Y-112810476D01*
X260314819Y-112810476D02*
X260314819Y-112715238D01*
X260267200Y-112000952D02*
X260314819Y-112096190D01*
X260314819Y-112096190D02*
X260314819Y-112286666D01*
X260314819Y-112286666D02*
X260267200Y-112381904D01*
X260267200Y-112381904D02*
X260171961Y-112429523D01*
X260171961Y-112429523D02*
X259791009Y-112429523D01*
X259791009Y-112429523D02*
X259695771Y-112381904D01*
X259695771Y-112381904D02*
X259648152Y-112286666D01*
X259648152Y-112286666D02*
X259648152Y-112096190D01*
X259648152Y-112096190D02*
X259695771Y-112000952D01*
X259695771Y-112000952D02*
X259791009Y-111953333D01*
X259791009Y-111953333D02*
X259886247Y-111953333D01*
X259886247Y-111953333D02*
X259981485Y-112429523D01*
X260314819Y-111524761D02*
X259648152Y-111524761D01*
X259838628Y-111524761D02*
X259743390Y-111477142D01*
X259743390Y-111477142D02*
X259695771Y-111429523D01*
X259695771Y-111429523D02*
X259648152Y-111334285D01*
X259648152Y-111334285D02*
X259648152Y-111239047D01*
X259648152Y-110905713D02*
X260314819Y-110905713D01*
X259743390Y-110905713D02*
X259695771Y-110858094D01*
X259695771Y-110858094D02*
X259648152Y-110762856D01*
X259648152Y-110762856D02*
X259648152Y-110619999D01*
X259648152Y-110619999D02*
X259695771Y-110524761D01*
X259695771Y-110524761D02*
X259791009Y-110477142D01*
X259791009Y-110477142D02*
X260314819Y-110477142D01*
X254729819Y-114953333D02*
X255444104Y-114953333D01*
X255444104Y-114953333D02*
X255586961Y-115000952D01*
X255586961Y-115000952D02*
X255682200Y-115096190D01*
X255682200Y-115096190D02*
X255729819Y-115239047D01*
X255729819Y-115239047D02*
X255729819Y-115334285D01*
X255729819Y-113953333D02*
X255729819Y-114524761D01*
X255729819Y-114239047D02*
X254729819Y-114239047D01*
X254729819Y-114239047D02*
X254872676Y-114334285D01*
X254872676Y-114334285D02*
X254967914Y-114429523D01*
X254967914Y-114429523D02*
X255015533Y-114524761D01*
X173609333Y-91291580D02*
X173561714Y-91339200D01*
X173561714Y-91339200D02*
X173418857Y-91386819D01*
X173418857Y-91386819D02*
X173323619Y-91386819D01*
X173323619Y-91386819D02*
X173180762Y-91339200D01*
X173180762Y-91339200D02*
X173085524Y-91243961D01*
X173085524Y-91243961D02*
X173037905Y-91148723D01*
X173037905Y-91148723D02*
X172990286Y-90958247D01*
X172990286Y-90958247D02*
X172990286Y-90815390D01*
X172990286Y-90815390D02*
X173037905Y-90624914D01*
X173037905Y-90624914D02*
X173085524Y-90529676D01*
X173085524Y-90529676D02*
X173180762Y-90434438D01*
X173180762Y-90434438D02*
X173323619Y-90386819D01*
X173323619Y-90386819D02*
X173418857Y-90386819D01*
X173418857Y-90386819D02*
X173561714Y-90434438D01*
X173561714Y-90434438D02*
X173609333Y-90482057D01*
X174514095Y-90386819D02*
X174037905Y-90386819D01*
X174037905Y-90386819D02*
X173990286Y-90863009D01*
X173990286Y-90863009D02*
X174037905Y-90815390D01*
X174037905Y-90815390D02*
X174133143Y-90767771D01*
X174133143Y-90767771D02*
X174371238Y-90767771D01*
X174371238Y-90767771D02*
X174466476Y-90815390D01*
X174466476Y-90815390D02*
X174514095Y-90863009D01*
X174514095Y-90863009D02*
X174561714Y-90958247D01*
X174561714Y-90958247D02*
X174561714Y-91196342D01*
X174561714Y-91196342D02*
X174514095Y-91291580D01*
X174514095Y-91291580D02*
X174466476Y-91339200D01*
X174466476Y-91339200D02*
X174371238Y-91386819D01*
X174371238Y-91386819D02*
X174133143Y-91386819D01*
X174133143Y-91386819D02*
X174037905Y-91339200D01*
X174037905Y-91339200D02*
X173990286Y-91291580D01*
D12*
X225331664Y-57371785D02*
X225369760Y-57409881D01*
X225369760Y-57409881D02*
X225407855Y-57524166D01*
X225407855Y-57524166D02*
X225407855Y-57600357D01*
X225407855Y-57600357D02*
X225369760Y-57714643D01*
X225369760Y-57714643D02*
X225293569Y-57790833D01*
X225293569Y-57790833D02*
X225217379Y-57828928D01*
X225217379Y-57828928D02*
X225064998Y-57867024D01*
X225064998Y-57867024D02*
X224950712Y-57867024D01*
X224950712Y-57867024D02*
X224798331Y-57828928D01*
X224798331Y-57828928D02*
X224722140Y-57790833D01*
X224722140Y-57790833D02*
X224645950Y-57714643D01*
X224645950Y-57714643D02*
X224607855Y-57600357D01*
X224607855Y-57600357D02*
X224607855Y-57524166D01*
X224607855Y-57524166D02*
X224645950Y-57409881D01*
X224645950Y-57409881D02*
X224684045Y-57371785D01*
X225407855Y-56609881D02*
X225407855Y-57067024D01*
X225407855Y-56838452D02*
X224607855Y-56838452D01*
X224607855Y-56838452D02*
X224722140Y-56914643D01*
X224722140Y-56914643D02*
X224798331Y-56990833D01*
X224798331Y-56990833D02*
X224836426Y-57067024D01*
X224874521Y-55924166D02*
X225407855Y-55924166D01*
X224569760Y-56114642D02*
X225141188Y-56305119D01*
X225141188Y-56305119D02*
X225141188Y-55809880D01*
D10*
X215307152Y-121086476D02*
X215973819Y-121086476D01*
X214926200Y-121324571D02*
X215640485Y-121562666D01*
X215640485Y-121562666D02*
X215640485Y-120943619D01*
X215973819Y-120562666D02*
X214973819Y-120562666D01*
X215592866Y-120467428D02*
X215973819Y-120181714D01*
X215307152Y-120181714D02*
X215688104Y-120562666D01*
X214973819Y-119848380D02*
X214973819Y-119181714D01*
X214973819Y-119181714D02*
X215973819Y-119610285D01*
X213973580Y-59896666D02*
X214021200Y-59944285D01*
X214021200Y-59944285D02*
X214068819Y-60087142D01*
X214068819Y-60087142D02*
X214068819Y-60182380D01*
X214068819Y-60182380D02*
X214021200Y-60325237D01*
X214021200Y-60325237D02*
X213925961Y-60420475D01*
X213925961Y-60420475D02*
X213830723Y-60468094D01*
X213830723Y-60468094D02*
X213640247Y-60515713D01*
X213640247Y-60515713D02*
X213497390Y-60515713D01*
X213497390Y-60515713D02*
X213306914Y-60468094D01*
X213306914Y-60468094D02*
X213211676Y-60420475D01*
X213211676Y-60420475D02*
X213116438Y-60325237D01*
X213116438Y-60325237D02*
X213068819Y-60182380D01*
X213068819Y-60182380D02*
X213068819Y-60087142D01*
X213068819Y-60087142D02*
X213116438Y-59944285D01*
X213116438Y-59944285D02*
X213164057Y-59896666D01*
X213068819Y-59563332D02*
X213068819Y-58944285D01*
X213068819Y-58944285D02*
X213449771Y-59277618D01*
X213449771Y-59277618D02*
X213449771Y-59134761D01*
X213449771Y-59134761D02*
X213497390Y-59039523D01*
X213497390Y-59039523D02*
X213545009Y-58991904D01*
X213545009Y-58991904D02*
X213640247Y-58944285D01*
X213640247Y-58944285D02*
X213878342Y-58944285D01*
X213878342Y-58944285D02*
X213973580Y-58991904D01*
X213973580Y-58991904D02*
X214021200Y-59039523D01*
X214021200Y-59039523D02*
X214068819Y-59134761D01*
X214068819Y-59134761D02*
X214068819Y-59420475D01*
X214068819Y-59420475D02*
X214021200Y-59515713D01*
X214021200Y-59515713D02*
X213973580Y-59563332D01*
X182245333Y-91291580D02*
X182197714Y-91339200D01*
X182197714Y-91339200D02*
X182054857Y-91386819D01*
X182054857Y-91386819D02*
X181959619Y-91386819D01*
X181959619Y-91386819D02*
X181816762Y-91339200D01*
X181816762Y-91339200D02*
X181721524Y-91243961D01*
X181721524Y-91243961D02*
X181673905Y-91148723D01*
X181673905Y-91148723D02*
X181626286Y-90958247D01*
X181626286Y-90958247D02*
X181626286Y-90815390D01*
X181626286Y-90815390D02*
X181673905Y-90624914D01*
X181673905Y-90624914D02*
X181721524Y-90529676D01*
X181721524Y-90529676D02*
X181816762Y-90434438D01*
X181816762Y-90434438D02*
X181959619Y-90386819D01*
X181959619Y-90386819D02*
X182054857Y-90386819D01*
X182054857Y-90386819D02*
X182197714Y-90434438D01*
X182197714Y-90434438D02*
X182245333Y-90482057D01*
X183102476Y-90386819D02*
X182912000Y-90386819D01*
X182912000Y-90386819D02*
X182816762Y-90434438D01*
X182816762Y-90434438D02*
X182769143Y-90482057D01*
X182769143Y-90482057D02*
X182673905Y-90624914D01*
X182673905Y-90624914D02*
X182626286Y-90815390D01*
X182626286Y-90815390D02*
X182626286Y-91196342D01*
X182626286Y-91196342D02*
X182673905Y-91291580D01*
X182673905Y-91291580D02*
X182721524Y-91339200D01*
X182721524Y-91339200D02*
X182816762Y-91386819D01*
X182816762Y-91386819D02*
X183007238Y-91386819D01*
X183007238Y-91386819D02*
X183102476Y-91339200D01*
X183102476Y-91339200D02*
X183150095Y-91291580D01*
X183150095Y-91291580D02*
X183197714Y-91196342D01*
X183197714Y-91196342D02*
X183197714Y-90958247D01*
X183197714Y-90958247D02*
X183150095Y-90863009D01*
X183150095Y-90863009D02*
X183102476Y-90815390D01*
X183102476Y-90815390D02*
X183007238Y-90767771D01*
X183007238Y-90767771D02*
X182816762Y-90767771D01*
X182816762Y-90767771D02*
X182721524Y-90815390D01*
X182721524Y-90815390D02*
X182673905Y-90863009D01*
X182673905Y-90863009D02*
X182626286Y-90958247D01*
X197574819Y-99639333D02*
X198289104Y-99639333D01*
X198289104Y-99639333D02*
X198431961Y-99686952D01*
X198431961Y-99686952D02*
X198527200Y-99782190D01*
X198527200Y-99782190D02*
X198574819Y-99925047D01*
X198574819Y-99925047D02*
X198574819Y-100020285D01*
X198574819Y-99163142D02*
X197574819Y-99163142D01*
X197574819Y-99163142D02*
X197574819Y-98782190D01*
X197574819Y-98782190D02*
X197622438Y-98686952D01*
X197622438Y-98686952D02*
X197670057Y-98639333D01*
X197670057Y-98639333D02*
X197765295Y-98591714D01*
X197765295Y-98591714D02*
X197908152Y-98591714D01*
X197908152Y-98591714D02*
X198003390Y-98639333D01*
X198003390Y-98639333D02*
X198051009Y-98686952D01*
X198051009Y-98686952D02*
X198098628Y-98782190D01*
X198098628Y-98782190D02*
X198098628Y-99163142D01*
X198574819Y-97639333D02*
X198574819Y-98210761D01*
X198574819Y-97925047D02*
X197574819Y-97925047D01*
X197574819Y-97925047D02*
X197717676Y-98020285D01*
X197717676Y-98020285D02*
X197812914Y-98115523D01*
X197812914Y-98115523D02*
X197860533Y-98210761D01*
X169346952Y-119640819D02*
X170013618Y-119640819D01*
X170013618Y-119640819D02*
X169585047Y-120640819D01*
X170823142Y-119974152D02*
X170823142Y-120640819D01*
X170585047Y-119593200D02*
X170346952Y-120307485D01*
X170346952Y-120307485D02*
X170965999Y-120307485D01*
X171823142Y-120640819D02*
X171346952Y-120640819D01*
X171346952Y-120640819D02*
X171346952Y-119640819D01*
X172108857Y-120593200D02*
X172251714Y-120640819D01*
X172251714Y-120640819D02*
X172489809Y-120640819D01*
X172489809Y-120640819D02*
X172585047Y-120593200D01*
X172585047Y-120593200D02*
X172632666Y-120545580D01*
X172632666Y-120545580D02*
X172680285Y-120450342D01*
X172680285Y-120450342D02*
X172680285Y-120355104D01*
X172680285Y-120355104D02*
X172632666Y-120259866D01*
X172632666Y-120259866D02*
X172585047Y-120212247D01*
X172585047Y-120212247D02*
X172489809Y-120164628D01*
X172489809Y-120164628D02*
X172299333Y-120117009D01*
X172299333Y-120117009D02*
X172204095Y-120069390D01*
X172204095Y-120069390D02*
X172156476Y-120021771D01*
X172156476Y-120021771D02*
X172108857Y-119926533D01*
X172108857Y-119926533D02*
X172108857Y-119831295D01*
X172108857Y-119831295D02*
X172156476Y-119736057D01*
X172156476Y-119736057D02*
X172204095Y-119688438D01*
X172204095Y-119688438D02*
X172299333Y-119640819D01*
X172299333Y-119640819D02*
X172537428Y-119640819D01*
X172537428Y-119640819D02*
X172680285Y-119688438D01*
X173537428Y-119640819D02*
X173346952Y-119640819D01*
X173346952Y-119640819D02*
X173251714Y-119688438D01*
X173251714Y-119688438D02*
X173204095Y-119736057D01*
X173204095Y-119736057D02*
X173108857Y-119878914D01*
X173108857Y-119878914D02*
X173061238Y-120069390D01*
X173061238Y-120069390D02*
X173061238Y-120450342D01*
X173061238Y-120450342D02*
X173108857Y-120545580D01*
X173108857Y-120545580D02*
X173156476Y-120593200D01*
X173156476Y-120593200D02*
X173251714Y-120640819D01*
X173251714Y-120640819D02*
X173442190Y-120640819D01*
X173442190Y-120640819D02*
X173537428Y-120593200D01*
X173537428Y-120593200D02*
X173585047Y-120545580D01*
X173585047Y-120545580D02*
X173632666Y-120450342D01*
X173632666Y-120450342D02*
X173632666Y-120212247D01*
X173632666Y-120212247D02*
X173585047Y-120117009D01*
X173585047Y-120117009D02*
X173537428Y-120069390D01*
X173537428Y-120069390D02*
X173442190Y-120021771D01*
X173442190Y-120021771D02*
X173251714Y-120021771D01*
X173251714Y-120021771D02*
X173156476Y-120069390D01*
X173156476Y-120069390D02*
X173108857Y-120117009D01*
X173108857Y-120117009D02*
X173061238Y-120212247D01*
X174204095Y-120069390D02*
X174108857Y-120021771D01*
X174108857Y-120021771D02*
X174061238Y-119974152D01*
X174061238Y-119974152D02*
X174013619Y-119878914D01*
X174013619Y-119878914D02*
X174013619Y-119831295D01*
X174013619Y-119831295D02*
X174061238Y-119736057D01*
X174061238Y-119736057D02*
X174108857Y-119688438D01*
X174108857Y-119688438D02*
X174204095Y-119640819D01*
X174204095Y-119640819D02*
X174394571Y-119640819D01*
X174394571Y-119640819D02*
X174489809Y-119688438D01*
X174489809Y-119688438D02*
X174537428Y-119736057D01*
X174537428Y-119736057D02*
X174585047Y-119831295D01*
X174585047Y-119831295D02*
X174585047Y-119878914D01*
X174585047Y-119878914D02*
X174537428Y-119974152D01*
X174537428Y-119974152D02*
X174489809Y-120021771D01*
X174489809Y-120021771D02*
X174394571Y-120069390D01*
X174394571Y-120069390D02*
X174204095Y-120069390D01*
X174204095Y-120069390D02*
X174108857Y-120117009D01*
X174108857Y-120117009D02*
X174061238Y-120164628D01*
X174061238Y-120164628D02*
X174013619Y-120259866D01*
X174013619Y-120259866D02*
X174013619Y-120450342D01*
X174013619Y-120450342D02*
X174061238Y-120545580D01*
X174061238Y-120545580D02*
X174108857Y-120593200D01*
X174108857Y-120593200D02*
X174204095Y-120640819D01*
X174204095Y-120640819D02*
X174394571Y-120640819D01*
X174394571Y-120640819D02*
X174489809Y-120593200D01*
X174489809Y-120593200D02*
X174537428Y-120545580D01*
X174537428Y-120545580D02*
X174585047Y-120450342D01*
X174585047Y-120450342D02*
X174585047Y-120259866D01*
X174585047Y-120259866D02*
X174537428Y-120164628D01*
X174537428Y-120164628D02*
X174489809Y-120117009D01*
X174489809Y-120117009D02*
X174394571Y-120069390D01*
X175156476Y-120069390D02*
X175061238Y-120021771D01*
X175061238Y-120021771D02*
X175013619Y-119974152D01*
X175013619Y-119974152D02*
X174966000Y-119878914D01*
X174966000Y-119878914D02*
X174966000Y-119831295D01*
X174966000Y-119831295D02*
X175013619Y-119736057D01*
X175013619Y-119736057D02*
X175061238Y-119688438D01*
X175061238Y-119688438D02*
X175156476Y-119640819D01*
X175156476Y-119640819D02*
X175346952Y-119640819D01*
X175346952Y-119640819D02*
X175442190Y-119688438D01*
X175442190Y-119688438D02*
X175489809Y-119736057D01*
X175489809Y-119736057D02*
X175537428Y-119831295D01*
X175537428Y-119831295D02*
X175537428Y-119878914D01*
X175537428Y-119878914D02*
X175489809Y-119974152D01*
X175489809Y-119974152D02*
X175442190Y-120021771D01*
X175442190Y-120021771D02*
X175346952Y-120069390D01*
X175346952Y-120069390D02*
X175156476Y-120069390D01*
X175156476Y-120069390D02*
X175061238Y-120117009D01*
X175061238Y-120117009D02*
X175013619Y-120164628D01*
X175013619Y-120164628D02*
X174966000Y-120259866D01*
X174966000Y-120259866D02*
X174966000Y-120450342D01*
X174966000Y-120450342D02*
X175013619Y-120545580D01*
X175013619Y-120545580D02*
X175061238Y-120593200D01*
X175061238Y-120593200D02*
X175156476Y-120640819D01*
X175156476Y-120640819D02*
X175346952Y-120640819D01*
X175346952Y-120640819D02*
X175442190Y-120593200D01*
X175442190Y-120593200D02*
X175489809Y-120545580D01*
X175489809Y-120545580D02*
X175537428Y-120450342D01*
X175537428Y-120450342D02*
X175537428Y-120259866D01*
X175537428Y-120259866D02*
X175489809Y-120164628D01*
X175489809Y-120164628D02*
X175442190Y-120117009D01*
X175442190Y-120117009D02*
X175346952Y-120069390D01*
X171704095Y-105880819D02*
X171704095Y-106690342D01*
X171704095Y-106690342D02*
X171751714Y-106785580D01*
X171751714Y-106785580D02*
X171799333Y-106833200D01*
X171799333Y-106833200D02*
X171894571Y-106880819D01*
X171894571Y-106880819D02*
X172085047Y-106880819D01*
X172085047Y-106880819D02*
X172180285Y-106833200D01*
X172180285Y-106833200D02*
X172227904Y-106785580D01*
X172227904Y-106785580D02*
X172275523Y-106690342D01*
X172275523Y-106690342D02*
X172275523Y-105880819D01*
X172656476Y-105880819D02*
X173323142Y-105880819D01*
X173323142Y-105880819D02*
X172894571Y-106880819D01*
D12*
X217457664Y-58464785D02*
X217495760Y-58502881D01*
X217495760Y-58502881D02*
X217533855Y-58617166D01*
X217533855Y-58617166D02*
X217533855Y-58693357D01*
X217533855Y-58693357D02*
X217495760Y-58807643D01*
X217495760Y-58807643D02*
X217419569Y-58883833D01*
X217419569Y-58883833D02*
X217343379Y-58921928D01*
X217343379Y-58921928D02*
X217190998Y-58960024D01*
X217190998Y-58960024D02*
X217076712Y-58960024D01*
X217076712Y-58960024D02*
X216924331Y-58921928D01*
X216924331Y-58921928D02*
X216848140Y-58883833D01*
X216848140Y-58883833D02*
X216771950Y-58807643D01*
X216771950Y-58807643D02*
X216733855Y-58693357D01*
X216733855Y-58693357D02*
X216733855Y-58617166D01*
X216733855Y-58617166D02*
X216771950Y-58502881D01*
X216771950Y-58502881D02*
X216810045Y-58464785D01*
X217533855Y-57702881D02*
X217533855Y-58160024D01*
X217533855Y-57931452D02*
X216733855Y-57931452D01*
X216733855Y-57931452D02*
X216848140Y-58007643D01*
X216848140Y-58007643D02*
X216924331Y-58083833D01*
X216924331Y-58083833D02*
X216962426Y-58160024D01*
X216733855Y-57436214D02*
X216733855Y-56940976D01*
X216733855Y-56940976D02*
X217038617Y-57207642D01*
X217038617Y-57207642D02*
X217038617Y-57093357D01*
X217038617Y-57093357D02*
X217076712Y-57017166D01*
X217076712Y-57017166D02*
X217114807Y-56979071D01*
X217114807Y-56979071D02*
X217190998Y-56940976D01*
X217190998Y-56940976D02*
X217381474Y-56940976D01*
X217381474Y-56940976D02*
X217457664Y-56979071D01*
X217457664Y-56979071D02*
X217495760Y-57017166D01*
X217495760Y-57017166D02*
X217533855Y-57093357D01*
X217533855Y-57093357D02*
X217533855Y-57321928D01*
X217533855Y-57321928D02*
X217495760Y-57398119D01*
X217495760Y-57398119D02*
X217457664Y-57436214D01*
D10*
X232146666Y-132204819D02*
X232146666Y-132919104D01*
X232146666Y-132919104D02*
X232099047Y-133061961D01*
X232099047Y-133061961D02*
X232003809Y-133157200D01*
X232003809Y-133157200D02*
X231860952Y-133204819D01*
X231860952Y-133204819D02*
X231765714Y-133204819D01*
X232622857Y-133204819D02*
X232622857Y-132204819D01*
X232622857Y-132204819D02*
X233003809Y-132204819D01*
X233003809Y-132204819D02*
X233099047Y-132252438D01*
X233099047Y-132252438D02*
X233146666Y-132300057D01*
X233146666Y-132300057D02*
X233194285Y-132395295D01*
X233194285Y-132395295D02*
X233194285Y-132538152D01*
X233194285Y-132538152D02*
X233146666Y-132633390D01*
X233146666Y-132633390D02*
X233099047Y-132681009D01*
X233099047Y-132681009D02*
X233003809Y-132728628D01*
X233003809Y-132728628D02*
X232622857Y-132728628D01*
X234051428Y-132204819D02*
X233860952Y-132204819D01*
X233860952Y-132204819D02*
X233765714Y-132252438D01*
X233765714Y-132252438D02*
X233718095Y-132300057D01*
X233718095Y-132300057D02*
X233622857Y-132442914D01*
X233622857Y-132442914D02*
X233575238Y-132633390D01*
X233575238Y-132633390D02*
X233575238Y-133014342D01*
X233575238Y-133014342D02*
X233622857Y-133109580D01*
X233622857Y-133109580D02*
X233670476Y-133157200D01*
X233670476Y-133157200D02*
X233765714Y-133204819D01*
X233765714Y-133204819D02*
X233956190Y-133204819D01*
X233956190Y-133204819D02*
X234051428Y-133157200D01*
X234051428Y-133157200D02*
X234099047Y-133109580D01*
X234099047Y-133109580D02*
X234146666Y-133014342D01*
X234146666Y-133014342D02*
X234146666Y-132776247D01*
X234146666Y-132776247D02*
X234099047Y-132681009D01*
X234099047Y-132681009D02*
X234051428Y-132633390D01*
X234051428Y-132633390D02*
X233956190Y-132585771D01*
X233956190Y-132585771D02*
X233765714Y-132585771D01*
X233765714Y-132585771D02*
X233670476Y-132633390D01*
X233670476Y-132633390D02*
X233622857Y-132681009D01*
X233622857Y-132681009D02*
X233575238Y-132776247D01*
X204525952Y-119386819D02*
X205192618Y-119386819D01*
X205192618Y-119386819D02*
X204764047Y-120386819D01*
X206002142Y-119720152D02*
X206002142Y-120386819D01*
X205764047Y-119339200D02*
X205525952Y-120053485D01*
X205525952Y-120053485D02*
X206144999Y-120053485D01*
X207002142Y-120386819D02*
X206525952Y-120386819D01*
X206525952Y-120386819D02*
X206525952Y-119386819D01*
X207287857Y-120339200D02*
X207430714Y-120386819D01*
X207430714Y-120386819D02*
X207668809Y-120386819D01*
X207668809Y-120386819D02*
X207764047Y-120339200D01*
X207764047Y-120339200D02*
X207811666Y-120291580D01*
X207811666Y-120291580D02*
X207859285Y-120196342D01*
X207859285Y-120196342D02*
X207859285Y-120101104D01*
X207859285Y-120101104D02*
X207811666Y-120005866D01*
X207811666Y-120005866D02*
X207764047Y-119958247D01*
X207764047Y-119958247D02*
X207668809Y-119910628D01*
X207668809Y-119910628D02*
X207478333Y-119863009D01*
X207478333Y-119863009D02*
X207383095Y-119815390D01*
X207383095Y-119815390D02*
X207335476Y-119767771D01*
X207335476Y-119767771D02*
X207287857Y-119672533D01*
X207287857Y-119672533D02*
X207287857Y-119577295D01*
X207287857Y-119577295D02*
X207335476Y-119482057D01*
X207335476Y-119482057D02*
X207383095Y-119434438D01*
X207383095Y-119434438D02*
X207478333Y-119386819D01*
X207478333Y-119386819D02*
X207716428Y-119386819D01*
X207716428Y-119386819D02*
X207859285Y-119434438D01*
X208240238Y-119482057D02*
X208287857Y-119434438D01*
X208287857Y-119434438D02*
X208383095Y-119386819D01*
X208383095Y-119386819D02*
X208621190Y-119386819D01*
X208621190Y-119386819D02*
X208716428Y-119434438D01*
X208716428Y-119434438D02*
X208764047Y-119482057D01*
X208764047Y-119482057D02*
X208811666Y-119577295D01*
X208811666Y-119577295D02*
X208811666Y-119672533D01*
X208811666Y-119672533D02*
X208764047Y-119815390D01*
X208764047Y-119815390D02*
X208192619Y-120386819D01*
X208192619Y-120386819D02*
X208811666Y-120386819D01*
X209668809Y-119720152D02*
X209668809Y-120386819D01*
X209430714Y-119339200D02*
X209192619Y-120053485D01*
X209192619Y-120053485D02*
X209811666Y-120053485D01*
X210668809Y-119386819D02*
X210192619Y-119386819D01*
X210192619Y-119386819D02*
X210145000Y-119863009D01*
X210145000Y-119863009D02*
X210192619Y-119815390D01*
X210192619Y-119815390D02*
X210287857Y-119767771D01*
X210287857Y-119767771D02*
X210525952Y-119767771D01*
X210525952Y-119767771D02*
X210621190Y-119815390D01*
X210621190Y-119815390D02*
X210668809Y-119863009D01*
X210668809Y-119863009D02*
X210716428Y-119958247D01*
X210716428Y-119958247D02*
X210716428Y-120196342D01*
X210716428Y-120196342D02*
X210668809Y-120291580D01*
X210668809Y-120291580D02*
X210621190Y-120339200D01*
X210621190Y-120339200D02*
X210525952Y-120386819D01*
X210525952Y-120386819D02*
X210287857Y-120386819D01*
X210287857Y-120386819D02*
X210192619Y-120339200D01*
X210192619Y-120339200D02*
X210145000Y-120291580D01*
X206883095Y-105626819D02*
X206883095Y-106436342D01*
X206883095Y-106436342D02*
X206930714Y-106531580D01*
X206930714Y-106531580D02*
X206978333Y-106579200D01*
X206978333Y-106579200D02*
X207073571Y-106626819D01*
X207073571Y-106626819D02*
X207264047Y-106626819D01*
X207264047Y-106626819D02*
X207359285Y-106579200D01*
X207359285Y-106579200D02*
X207406904Y-106531580D01*
X207406904Y-106531580D02*
X207454523Y-106436342D01*
X207454523Y-106436342D02*
X207454523Y-105626819D01*
X207978333Y-106626819D02*
X208168809Y-106626819D01*
X208168809Y-106626819D02*
X208264047Y-106579200D01*
X208264047Y-106579200D02*
X208311666Y-106531580D01*
X208311666Y-106531580D02*
X208406904Y-106388723D01*
X208406904Y-106388723D02*
X208454523Y-106198247D01*
X208454523Y-106198247D02*
X208454523Y-105817295D01*
X208454523Y-105817295D02*
X208406904Y-105722057D01*
X208406904Y-105722057D02*
X208359285Y-105674438D01*
X208359285Y-105674438D02*
X208264047Y-105626819D01*
X208264047Y-105626819D02*
X208073571Y-105626819D01*
X208073571Y-105626819D02*
X207978333Y-105674438D01*
X207978333Y-105674438D02*
X207930714Y-105722057D01*
X207930714Y-105722057D02*
X207883095Y-105817295D01*
X207883095Y-105817295D02*
X207883095Y-106055390D01*
X207883095Y-106055390D02*
X207930714Y-106150628D01*
X207930714Y-106150628D02*
X207978333Y-106198247D01*
X207978333Y-106198247D02*
X208073571Y-106245866D01*
X208073571Y-106245866D02*
X208264047Y-106245866D01*
X208264047Y-106245866D02*
X208359285Y-106198247D01*
X208359285Y-106198247D02*
X208406904Y-106150628D01*
X208406904Y-106150628D02*
X208454523Y-106055390D01*
D13*
%TO.C,C7*%
X195048000Y-92182000D02*
X195048000Y-89682000D01*
X195048000Y-89682000D02*
X187048000Y-89682000D01*
X187048000Y-92182000D02*
X195048000Y-92182000D01*
X187048000Y-89682000D02*
X187048000Y-92182000D01*
%TO.C,J2*%
X147828000Y-141920000D02*
X229108000Y-141920000D01*
X147828000Y-150810000D02*
X147828000Y-141920000D01*
X229108000Y-141920000D02*
X229108000Y-150810000D01*
X229108000Y-150810000D02*
X147828000Y-150810000D01*
%TO.C,U6*%
X153178000Y-96775000D02*
X154178000Y-97775000D01*
X118618000Y-96775000D02*
X153178000Y-96775000D01*
X154178000Y-97775000D02*
X154178000Y-111505000D01*
X154178000Y-111505000D02*
X118618000Y-111505000D01*
X118618000Y-111505000D02*
X118618000Y-96775000D01*
%TO.C,CN1*%
X227838000Y-65024000D02*
X229108000Y-63754000D01*
X227838000Y-127254000D02*
X227838000Y-65024000D01*
X229108000Y-63754000D02*
X232918000Y-63754000D01*
X232918000Y-63754000D02*
X232918000Y-127254000D01*
X232918000Y-127254000D02*
X227838000Y-127254000D01*
%TO.C,RP1*%
X182352000Y-93706000D02*
X179852000Y-93706000D01*
X179852000Y-93706000D02*
X179852000Y-114066000D01*
X182352000Y-96266000D02*
X179852000Y-96266000D01*
X182352000Y-114066000D02*
X182352000Y-93706000D01*
X179852000Y-114066000D02*
X182352000Y-114066000D01*
%TO.C,C8*%
X212574000Y-91420000D02*
X212574000Y-88920000D01*
X212574000Y-88920000D02*
X204574000Y-88920000D01*
X204574000Y-91420000D02*
X212574000Y-91420000D01*
X204574000Y-88920000D02*
X204574000Y-91420000D01*
%TO.C,C4*%
X149455000Y-92182000D02*
X149455000Y-89682000D01*
X149455000Y-89682000D02*
X141455000Y-89682000D01*
X141455000Y-92182000D02*
X149455000Y-92182000D01*
X141455000Y-89682000D02*
X141455000Y-92182000D01*
%TO.C,U10*%
X153178000Y-123444000D02*
X154178000Y-124444000D01*
X128778000Y-123444000D02*
X153178000Y-123444000D01*
X154178000Y-124444000D02*
X154178000Y-129794000D01*
X154178000Y-129794000D02*
X128778000Y-129794000D01*
X128778000Y-129794000D02*
X128778000Y-123444000D01*
%TO.C,C2*%
X181884000Y-63730000D02*
X184384000Y-63730000D01*
X184384000Y-63730000D02*
X184384000Y-55730000D01*
X181884000Y-55730000D02*
X181884000Y-63730000D01*
X184384000Y-55730000D02*
X181884000Y-55730000D01*
%TO.C,RP2*%
X225278000Y-59924000D02*
X222778000Y-59924000D01*
X222778000Y-59924000D02*
X222778000Y-80284000D01*
X225278000Y-62484000D02*
X222778000Y-62484000D01*
X225278000Y-80284000D02*
X225278000Y-59924000D01*
X222778000Y-80284000D02*
X225278000Y-80284000D01*
%TO.C,U11*%
X220312500Y-56288000D02*
X220712500Y-55888000D01*
X220312500Y-58788000D02*
X220312500Y-56288000D01*
X220712500Y-55888000D02*
X221912500Y-55888000D01*
X221912500Y-55888000D02*
X221912500Y-58788000D01*
X221912500Y-58788000D02*
X220312500Y-58788000D01*
%TO.C,U8*%
X186817000Y-94726000D02*
X187817000Y-93726000D01*
X186817000Y-119126000D02*
X186817000Y-94726000D01*
X187817000Y-93726000D02*
X193167000Y-93726000D01*
X193167000Y-93726000D02*
X193167000Y-119126000D01*
X193167000Y-119126000D02*
X186817000Y-119126000D01*
%TO.C,U3*%
X208804000Y-56261000D02*
X209804000Y-57261000D01*
X192024000Y-56261000D02*
X208804000Y-56261000D01*
X209804000Y-57261000D02*
X209804000Y-62611000D01*
X209804000Y-62611000D02*
X192024000Y-62611000D01*
X192024000Y-62611000D02*
X192024000Y-56261000D01*
%TO.C,CR1*%
X219202000Y-117094000D02*
X219202000Y-121924000D01*
X220002000Y-121924000D02*
X218402000Y-121924000D01*
X218402000Y-121924000D02*
X218402000Y-124964000D01*
X220002000Y-122280000D02*
X218402000Y-122280000D01*
X220002000Y-122380000D02*
X218402000Y-122380000D01*
X220002000Y-122480000D02*
X218402000Y-122480000D01*
X220002000Y-124964000D02*
X220002000Y-121924000D01*
X218402000Y-124964000D02*
X220002000Y-124964000D01*
X219202000Y-129794000D02*
X219202000Y-124964000D01*
%TO.C,RP3*%
X225278000Y-84435000D02*
X222778000Y-84435000D01*
X222778000Y-84435000D02*
X222778000Y-104795000D01*
X225278000Y-86995000D02*
X222778000Y-86995000D01*
X225278000Y-104795000D02*
X225278000Y-84435000D01*
X222778000Y-104795000D02*
X225278000Y-104795000D01*
%TO.C,JP2*%
X183896000Y-122301000D02*
X185166000Y-123571000D01*
X177546000Y-122301000D02*
X183896000Y-122301000D01*
X185166000Y-123571000D02*
X185166000Y-127381000D01*
X185166000Y-127381000D02*
X177546000Y-127381000D01*
X177546000Y-127381000D02*
X177546000Y-122301000D01*
%TO.C,C12*%
X228384000Y-55296000D02*
X228384000Y-58496000D01*
X226784000Y-55296000D02*
X228384000Y-55296000D01*
X228384000Y-58496000D02*
X226784000Y-58496000D01*
X226784000Y-58496000D02*
X226784000Y-55296000D01*
%TO.C,J4*%
X190881000Y-134874000D02*
X192151000Y-136144000D01*
X181991000Y-134874000D02*
X190881000Y-134874000D01*
X192151000Y-136144000D02*
X192151000Y-139954000D01*
X192151000Y-139954000D02*
X181991000Y-139954000D01*
X181991000Y-139954000D02*
X181991000Y-134874000D01*
%TO.C,U1*%
X148225000Y-56261000D02*
X149225000Y-57261000D01*
X128905000Y-56261000D02*
X148225000Y-56261000D01*
X149225000Y-57261000D02*
X149225000Y-62611000D01*
X149225000Y-62611000D02*
X128905000Y-62611000D01*
X128905000Y-62611000D02*
X128905000Y-56261000D01*
%TO.C,C1*%
X152166000Y-63730000D02*
X154666000Y-63730000D01*
X154666000Y-63730000D02*
X154666000Y-55730000D01*
X152166000Y-55730000D02*
X152166000Y-63730000D01*
X154666000Y-55730000D02*
X152166000Y-55730000D01*
%TO.C,C9*%
X154916000Y-118598000D02*
X154916000Y-116098000D01*
X154916000Y-116098000D02*
X146916000Y-116098000D01*
X146916000Y-118598000D02*
X154916000Y-118598000D01*
X146916000Y-116098000D02*
X146916000Y-118598000D01*
%TO.C,C10*%
X154916000Y-134600000D02*
X154916000Y-132100000D01*
X154916000Y-132100000D02*
X146916000Y-132100000D01*
X146916000Y-134600000D02*
X154916000Y-134600000D01*
X146916000Y-132100000D02*
X146916000Y-134600000D01*
%TO.C,U5*%
X211598000Y-70867000D02*
X212598000Y-71867000D01*
X161798000Y-70867000D02*
X211598000Y-70867000D01*
X212598000Y-71867000D02*
X212598000Y-85597000D01*
X212598000Y-85597000D02*
X161798000Y-85597000D01*
X161798000Y-85597000D02*
X161798000Y-70867000D01*
%TO.C,U2*%
X178578000Y-56261000D02*
X179578000Y-57261000D01*
X161798000Y-56261000D02*
X178578000Y-56261000D01*
X179578000Y-57261000D02*
X179578000Y-62611000D01*
X179578000Y-62611000D02*
X161798000Y-62611000D01*
X161798000Y-62611000D02*
X161798000Y-56261000D01*
%TO.C,U4*%
X148225000Y-68581000D02*
X149225000Y-69581000D01*
X118745000Y-68581000D02*
X148225000Y-68581000D01*
X149225000Y-69581000D02*
X149225000Y-83311000D01*
X149225000Y-83311000D02*
X118745000Y-83311000D01*
X118745000Y-83311000D02*
X118745000Y-68581000D01*
%TO.C,C11*%
X155448000Y-138557000D02*
X151948000Y-138557000D01*
X151948000Y-141057000D02*
X151948000Y-136057000D01*
X151948000Y-141057000D02*
X150268000Y-141057000D01*
X151948000Y-136057000D02*
X150268000Y-136057000D01*
X150268000Y-141057000D02*
X149368000Y-140157000D01*
X150268000Y-136057000D02*
X149368000Y-136957000D01*
X150248000Y-138557000D02*
X148448000Y-138557000D01*
X149368000Y-140157000D02*
X148468000Y-141057000D01*
X149368000Y-136957000D02*
X148468000Y-136057000D01*
X149348000Y-139457000D02*
X149348000Y-137657000D01*
X148468000Y-141057000D02*
X140948000Y-141057000D01*
X148468000Y-136057000D02*
X140948000Y-136057000D01*
X140948000Y-141057000D02*
X140948000Y-136057000D01*
X137448000Y-138557000D02*
X140948000Y-138557000D01*
%TO.C,RP4*%
X225278000Y-108184000D02*
X222778000Y-108184000D01*
X222778000Y-108184000D02*
X222778000Y-128544000D01*
X225278000Y-110744000D02*
X222778000Y-110744000D01*
X225278000Y-128544000D02*
X225278000Y-108184000D01*
X222778000Y-128544000D02*
X225278000Y-128544000D01*
%TO.C,J1*%
X239450000Y-141170000D02*
X251790000Y-141170000D01*
X251790000Y-141170000D02*
X252190000Y-141170000D01*
X251790000Y-141170000D02*
X251790000Y-88070000D01*
X252190000Y-141170000D02*
X252190000Y-88070000D01*
X252190000Y-140670000D02*
X257190000Y-140670000D01*
X257190000Y-140670000D02*
X257190000Y-135670000D01*
X251790000Y-139770000D02*
X242670000Y-139770000D01*
X251790000Y-136570000D02*
X242670000Y-136570000D01*
X252190000Y-135670000D02*
X252190000Y-140670000D01*
X257190000Y-135670000D02*
X252190000Y-135670000D01*
X252190000Y-133770000D02*
X258360000Y-133770000D01*
X258360000Y-133770000D02*
X258360000Y-95470000D01*
X252190000Y-95470000D02*
X252190000Y-133770000D01*
X258360000Y-95470000D02*
X252190000Y-95470000D01*
X252190000Y-93570000D02*
X257190000Y-93570000D01*
X257190000Y-93570000D02*
X257190000Y-88570000D01*
X251790000Y-92670000D02*
X242670000Y-92670000D01*
X251790000Y-89470000D02*
X242670000Y-89470000D01*
X252190000Y-88570000D02*
X252190000Y-93570000D01*
X257190000Y-88570000D02*
X252190000Y-88570000D01*
X239450000Y-88070000D02*
X239450000Y-141170000D01*
X251790000Y-88070000D02*
X251790000Y-141170000D01*
X251790000Y-88070000D02*
X239450000Y-88070000D01*
X252190000Y-88070000D02*
X251790000Y-88070000D01*
X242670000Y-136570000D02*
G75*
G03*
X242670000Y-139770000I0J-1600000D01*
G01*
X242670000Y-89470000D02*
G75*
G03*
X242670000Y-92670000I0J-1600000D01*
G01*
%TO.C,C5*%
X177776000Y-92182000D02*
X177776000Y-89682000D01*
X177776000Y-89682000D02*
X169776000Y-89682000D01*
X169776000Y-92182000D02*
X177776000Y-92182000D01*
X169776000Y-89682000D02*
X169776000Y-92182000D01*
%TO.C,C14*%
X225844000Y-55257500D02*
X225844000Y-58457500D01*
X224244000Y-55257500D02*
X225844000Y-55257500D01*
X225844000Y-58457500D02*
X224244000Y-58457500D01*
X224244000Y-58457500D02*
X224244000Y-55257500D01*
%TO.C,R1*%
X215392000Y-129540000D02*
X215392000Y-127690000D01*
X213792000Y-127690000D02*
X216992000Y-127690000D01*
X216992000Y-127690000D02*
X216992000Y-118690000D01*
X213792000Y-118690000D02*
X213792000Y-127690000D01*
X216992000Y-118690000D02*
X213792000Y-118690000D01*
X215392000Y-116840000D02*
X215392000Y-118690000D01*
%TO.C,C3*%
X212364000Y-63730000D02*
X214864000Y-63730000D01*
X214864000Y-63730000D02*
X214864000Y-55730000D01*
X212364000Y-55730000D02*
X212364000Y-63730000D01*
X214864000Y-55730000D02*
X212364000Y-55730000D01*
%TO.C,C6*%
X186412000Y-92182000D02*
X186412000Y-89682000D01*
X186412000Y-89682000D02*
X178412000Y-89682000D01*
X178412000Y-92182000D02*
X186412000Y-92182000D01*
X178412000Y-89682000D02*
X178412000Y-92182000D01*
%TO.C,JP1*%
X200660000Y-100076000D02*
X199390000Y-101346000D01*
X200660000Y-96266000D02*
X200660000Y-100076000D01*
X199390000Y-101346000D02*
X195580000Y-101346000D01*
X195580000Y-101346000D02*
X195580000Y-96266000D01*
X195580000Y-96266000D02*
X200660000Y-96266000D01*
%TO.C,JP3*%
X176906000Y-134869000D02*
X178176000Y-136139000D01*
X165476000Y-134869000D02*
X176906000Y-134869000D01*
X178176000Y-136139000D02*
X178176000Y-139949000D01*
X178176000Y-139949000D02*
X165476000Y-139949000D01*
X165476000Y-139949000D02*
X165476000Y-134869000D01*
%TO.C,U7*%
X169291000Y-94726000D02*
X170291000Y-93726000D01*
X169291000Y-119126000D02*
X169291000Y-94726000D01*
X170291000Y-93726000D02*
X175641000Y-93726000D01*
X175641000Y-93726000D02*
X175641000Y-119126000D01*
X175641000Y-119126000D02*
X169291000Y-119126000D01*
%TO.C,C13*%
X217970000Y-56350500D02*
X217970000Y-59550500D01*
X216370000Y-56350500D02*
X217970000Y-56350500D01*
X217970000Y-59550500D02*
X216370000Y-59550500D01*
X216370000Y-59550500D02*
X216370000Y-56350500D01*
%TO.C,JP6*%
X231075000Y-134020000D02*
X230440000Y-133385000D01*
X235520000Y-134020000D02*
X231075000Y-134020000D01*
X230440000Y-133385000D02*
X230440000Y-131480000D01*
X230440000Y-131480000D02*
X235520000Y-131480000D01*
X235520000Y-131480000D02*
X235520000Y-134020000D01*
%TO.C,U9*%
X204470000Y-94472000D02*
X205470000Y-93472000D01*
X204470000Y-118872000D02*
X204470000Y-94472000D01*
X205470000Y-93472000D02*
X210820000Y-93472000D01*
X210820000Y-93472000D02*
X210820000Y-118872000D01*
X210820000Y-118872000D02*
X204470000Y-118872000D01*
%TD*%
M02*
