M48
; DRILL file {KiCad 7.0.11-7.0.11~ubuntu20.04.1} date Mo 08 Apr 2024 13:47:55
; FORMAT={-:-/ absolute / metric / decimal}
; #@! TF.CreationDate,2024-04-08T13:47:55+02:00
; #@! TF.GenerationSoftware,Kicad,Pcbnew,7.0.11-7.0.11~ubuntu20.04.1
; #@! TF.FileFunction,MixedPlating,1,2
FMAT,2
METRIC
; #@! TA.AperFunction,Plated,PTH,ViaDrill
T1C0.600
; #@! TA.AperFunction,Plated,PTH,ComponentDrill
T2C0.750
; #@! TA.AperFunction,Plated,PTH,ComponentDrill
T3C0.800
; #@! TA.AperFunction,Plated,PTH,ComponentDrill
T4C1.000
; #@! TA.AperFunction,Plated,PTH,ComponentDrill
T5C1.200
%
G90
G05
T1
X119.888Y-126.492
X120.904Y-56.769
X121.158Y-106.426
X121.158Y-131.064
X124.206Y-123.952
X124.46Y-112.776
X126.238Y-125.222
X126.492Y-84.201
X127.635Y-101.6
X129.921Y-99.06
X130.048Y-133.096
X131.318Y-76.962
X132.334Y-100.33
X133.223Y-85.471
X133.858Y-74.803
X133.858Y-107.696
X133.985Y-137.033
X135.128Y-135.382
X137.668Y-78.613
X137.668Y-105.451
X138.938Y-113.284
X139.065Y-101.6
X140.208Y-79.629
X140.516Y-116.259
X141.478Y-102.87
X141.732Y-60.071
X141.732Y-100.33
X142.748Y-107.696
X142.875Y-116.205
X143.129Y-85.344
X144.313Y-92.637
X145.288Y-102.743
X145.288Y-113.116
X147.955Y-105.41
X148.463Y-100.838
X148.717Y-138.811
X150.368Y-101.727
X150.495Y-99.187
X151.765Y-82.169
X152.908Y-87.884
X152.908Y-98.806
X154.94Y-78.486
X155.448Y-76.327
X158.496Y-76.581
X160.528Y-60.198
X160.528Y-139.192
X160.782Y-122.936
X161.544Y-138.049
X162.306Y-129.794
X163.068Y-115.316
X164.338Y-128.778
X166.987Y-127.399
X167.894Y-52.07
X168.021Y-70.739
X168.783Y-73.152
X173.228Y-70.612
X175.514Y-50.546
X178.816Y-130.556
X179.324Y-136.652
X180.34Y-135.128
X181.864Y-133.096
X183.388Y-58.928
X186.944Y-124.46
X187.452Y-128.016
X188.722Y-107.696
X191.77Y-101.346
X195.707Y-94.107
X198.12Y-90.932
X211.582Y-84.074
X224.028Y-133.096
T2
X218.948Y-116.84
X218.948Y-129.54
T3
X119.888Y-94.869
X119.888Y-110.109
X120.015Y-66.548
X120.015Y-81.788
X122.428Y-94.869
X122.428Y-110.109
X122.555Y-66.548
X122.555Y-81.788
X124.968Y-94.869
X124.968Y-110.109
X125.095Y-66.548
X125.095Y-81.788
X127.508Y-94.869
X127.508Y-110.109
X127.635Y-66.548
X127.635Y-81.788
X130.048Y-94.869
X130.048Y-110.109
X130.048Y-122.047
X130.048Y-129.667
X130.175Y-48.895
X130.175Y-56.515
X130.175Y-66.548
X130.175Y-81.788
X132.588Y-94.869
X132.588Y-110.109
X132.588Y-122.047
X132.588Y-129.667
X132.715Y-48.895
X132.715Y-56.515
X132.715Y-66.548
X132.715Y-81.788
X135.128Y-94.869
X135.128Y-110.109
X135.128Y-122.047
X135.128Y-129.667
X135.255Y-48.895
X135.255Y-56.515
X135.255Y-66.548
X135.255Y-81.788
X137.668Y-94.869
X137.668Y-110.109
X137.668Y-122.047
X137.668Y-129.667
X137.795Y-48.895
X137.795Y-56.515
X137.795Y-66.548
X137.795Y-81.788
X140.208Y-94.869
X140.208Y-110.109
X140.208Y-122.047
X140.208Y-129.667
X140.335Y-48.895
X140.335Y-56.515
X140.335Y-66.548
X140.335Y-81.788
X142.748Y-94.869
X142.748Y-110.109
X142.748Y-122.047
X142.748Y-129.667
X142.875Y-48.895
X142.875Y-56.515
X142.875Y-66.548
X142.875Y-81.788
X143.082Y-88.392
X145.288Y-94.869
X145.288Y-110.109
X145.288Y-122.047
X145.288Y-129.667
X145.415Y-48.895
X145.415Y-56.515
X145.415Y-66.548
X145.415Y-81.788
X147.828Y-94.869
X147.828Y-110.109
X147.828Y-122.047
X147.828Y-129.667
X147.955Y-48.895
X147.955Y-56.515
X147.955Y-66.548
X147.955Y-81.788
X148.082Y-88.392
X148.416Y-115.443
X148.416Y-133.35
X150.368Y-94.869
X150.368Y-110.109
X150.368Y-122.047
X150.368Y-129.667
X152.908Y-51.388
X152.908Y-56.388
X152.908Y-94.869
X152.908Y-110.109
X152.908Y-122.047
X152.908Y-129.667
X153.416Y-115.443
X153.416Y-133.35
X162.56Y-48.26
X162.56Y-55.88
X163.068Y-66.67
X163.068Y-81.91
X165.1Y-48.26
X165.1Y-55.88
X165.608Y-66.67
X165.608Y-81.91
X167.64Y-48.26
X167.64Y-55.88
X168.148Y-66.67
X168.148Y-81.91
X168.656Y-94.996
X168.656Y-97.536
X168.656Y-100.076
X168.656Y-102.616
X168.656Y-105.156
X168.656Y-107.696
X168.656Y-110.236
X168.656Y-112.776
X168.656Y-115.316
X168.656Y-117.856
X170.18Y-48.26
X170.18Y-55.88
X170.688Y-66.67
X170.688Y-81.91
X171.022Y-88.392
X172.72Y-48.26
X172.72Y-55.88
X173.228Y-66.67
X173.228Y-81.91
X175.26Y-48.26
X175.26Y-55.88
X175.768Y-66.67
X175.768Y-81.91
X176.022Y-88.392
X176.276Y-94.996
X176.276Y-97.536
X176.276Y-100.076
X176.276Y-102.616
X176.276Y-105.156
X176.276Y-107.696
X176.276Y-110.236
X176.276Y-112.776
X176.276Y-115.316
X176.276Y-117.856
X177.8Y-48.26
X177.8Y-55.88
X178.308Y-66.67
X178.308Y-81.91
X179.912Y-88.392
X180.848Y-66.67
X180.848Y-81.91
X181.102Y-94.996
X181.102Y-97.536
X181.102Y-100.076
X181.102Y-102.616
X181.102Y-105.156
X181.102Y-107.696
X181.102Y-110.236
X181.102Y-112.776
X183.388Y-50.88
X183.388Y-55.88
X183.388Y-66.67
X183.388Y-81.91
X184.912Y-88.392
X185.928Y-66.67
X185.928Y-81.91
X186.182Y-94.996
X186.182Y-97.536
X186.182Y-100.076
X186.182Y-102.616
X186.182Y-105.156
X186.182Y-107.696
X186.182Y-110.236
X186.182Y-112.776
X186.182Y-115.316
X186.182Y-117.856
X188.468Y-66.67
X188.468Y-81.91
X188.802Y-88.392
X191.008Y-66.67
X191.008Y-81.91
X193.04Y-48.895
X193.04Y-56.515
X193.548Y-66.67
X193.548Y-81.91
X193.802Y-88.392
X193.802Y-94.996
X193.802Y-97.536
X193.802Y-100.076
X193.802Y-102.616
X193.802Y-105.156
X193.802Y-107.696
X193.802Y-110.236
X193.802Y-112.776
X193.802Y-115.316
X193.802Y-117.856
X195.58Y-48.895
X195.58Y-56.515
X196.088Y-66.67
X196.088Y-81.91
X198.12Y-48.895
X198.12Y-56.515
X198.628Y-66.67
X198.628Y-81.91
X200.66Y-48.895
X200.66Y-56.515
X201.168Y-66.67
X201.168Y-81.91
X203.2Y-48.895
X203.2Y-56.515
X203.708Y-66.67
X203.708Y-81.91
X203.835Y-94.742
X203.835Y-97.282
X203.835Y-99.822
X203.835Y-102.362
X203.835Y-104.902
X203.835Y-107.442
X203.835Y-109.982
X203.835Y-112.522
X203.835Y-115.062
X203.835Y-117.602
X205.74Y-48.895
X205.74Y-56.515
X206.201Y-88.646
X206.248Y-66.67
X206.248Y-81.91
X208.28Y-48.895
X208.28Y-56.515
X208.788Y-66.67
X208.788Y-81.91
X211.201Y-88.646
X211.328Y-66.67
X211.328Y-81.91
X211.455Y-94.742
X211.455Y-97.282
X211.455Y-99.822
X211.455Y-102.362
X211.455Y-104.902
X211.455Y-107.442
X211.455Y-109.982
X211.455Y-112.522
X211.455Y-115.062
X211.455Y-117.602
X213.868Y-51.348
X213.868Y-56.348
X215.392Y-116.84
X215.392Y-129.54
X224.028Y-61.214
X224.028Y-63.754
X224.028Y-66.294
X224.028Y-68.834
X224.028Y-71.374
X224.028Y-73.914
X224.028Y-76.454
X224.028Y-78.994
X224.028Y-85.725
X224.028Y-88.265
X224.028Y-90.805
X224.028Y-93.345
X224.028Y-95.885
X224.028Y-98.425
X224.028Y-100.965
X224.028Y-103.505
X224.028Y-109.474
X224.028Y-112.014
X224.028Y-114.554
X224.028Y-117.094
X224.028Y-119.634
X224.028Y-122.174
X224.028Y-124.714
X224.028Y-127.254
T4
X166.746Y-136.139
X166.746Y-138.679
X169.286Y-136.139
X169.286Y-138.679
X171.826Y-136.139
X171.826Y-138.679
X174.366Y-136.139
X174.366Y-138.679
X176.906Y-136.139
X176.906Y-138.679
X178.816Y-121.412
X178.816Y-123.952
X181.356Y-121.412
X181.356Y-123.952
X183.139Y-136.901
X183.139Y-139.441
X183.896Y-121.412
X183.896Y-123.952
X185.679Y-136.901
X185.679Y-139.441
X188.219Y-136.901
X188.219Y-139.441
X190.759Y-136.901
X190.759Y-139.441
X197.358Y-97.409
X197.358Y-99.949
X199.898Y-97.409
X199.898Y-99.949
X229.108Y-65.024
X229.108Y-67.564
X229.108Y-70.104
X229.108Y-72.644
X229.108Y-75.184
X229.108Y-77.724
X229.108Y-80.264
X229.108Y-82.804
X229.108Y-85.344
X229.108Y-87.884
X229.108Y-90.424
X229.108Y-92.964
X229.108Y-95.504
X229.108Y-98.044
X229.108Y-100.584
X229.108Y-103.124
X229.108Y-105.664
X229.108Y-108.204
X229.108Y-110.744
X229.108Y-113.284
X229.108Y-115.824
X229.108Y-118.364
X229.108Y-120.904
X229.108Y-123.444
X229.108Y-125.984
X231.648Y-65.024
X231.648Y-67.564
X231.648Y-70.104
X231.648Y-72.644
X231.648Y-75.184
X231.648Y-77.724
X231.648Y-80.264
X231.648Y-82.804
X231.648Y-85.344
X231.648Y-87.884
X231.648Y-90.424
X231.648Y-92.964
X231.648Y-95.504
X231.648Y-98.044
X231.648Y-100.584
X231.648Y-103.124
X231.648Y-105.664
X231.648Y-108.204
X231.648Y-110.744
X231.648Y-113.284
X231.648Y-115.824
X231.648Y-118.364
X231.648Y-120.904
X231.648Y-123.444
X231.648Y-125.984
X242.062Y-82.181
X242.062Y-84.951
X242.062Y-87.721
X242.062Y-90.491
X242.062Y-93.261
X242.062Y-96.031
X242.062Y-98.801
X242.062Y-101.571
X242.062Y-104.341
X242.062Y-107.111
X242.062Y-109.881
X242.062Y-112.651
X242.062Y-115.421
X244.602Y-83.566
X244.602Y-86.336
X244.602Y-89.106
X244.602Y-91.876
X244.602Y-94.646
X244.602Y-97.416
X244.602Y-100.186
X244.602Y-102.956
X244.602Y-105.726
X244.602Y-108.496
X244.602Y-111.266
X244.602Y-114.036
T5
X137.448Y-138.557
X155.448Y-138.557
M30
